<svg width="20" height="20" viewBox="0 0 20 20" fill="none" xmlns="http://www.w3.org/2000/svg">
<path id="Vector" d="M17.0667 2.93333C16.1333 2 15.0556 1.27778 13.8333 0.766666C12.6111 0.255554 11.3333 -1.90735e-06 10 -1.90735e-06C8.66667 -1.90735e-06 7.38889 0.255554 6.16667 0.766666C4.94444 1.27778 3.86667 2 2.93333 2.93333C2 3.86666 1.27778 4.94444 0.766667 6.16667C0.255556 7.38889 0 8.66667 0 10C0 11.3333 0.255556 12.6111 0.766667 13.8333C1.27778 15.0556 2 16.1333 2.93333 17.0667C3.86667 18 4.94444 18.7222 6.16667 19.2333C7.38889 19.7444 8.66667 20 10 20C11.3333 20 12.6111 19.7444 13.8333 19.2333C15.0556 18.7222 16.1333 18 17.0667 17.0667C18 16.1333 18.7222 15.0556 19.2333 13.8333C19.7444 12.6111 20 11.3333 20 10C20 8.66667 19.7444 7.38889 19.2333 6.16667C18.7222 4.94444 18 3.86666 17.0667 2.93333ZM5 17.2667C5.22222 16.0667 5.8 15.0667 6.73333 14.2667C7.66667 13.4667 8.75556 13.0667 10 13.0667C11.2444 13.0667 12.3333 13.4667 13.2667 14.2667C14.2 15.0667 14.7778 16.0667 15 17.2667C13.4889 18.2889 11.8222 18.8 10 18.8C8.17778 18.8 6.51111 18.2889 5 17.2667ZM6.8 8.73333C6.8 7.84444 7.11111 7.08889 7.73333 6.46667C8.35556 5.84444 9.11111 5.53333 10 5.53333C10.8889 5.53333 11.6444 5.84444 12.2667 6.46667C12.8889 7.08889 13.2 7.84444 13.2 8.73333C13.2 9.62222 12.8889 10.3778 12.2667 11C11.6444 11.6222 10.8889 11.9333 10 11.9333C9.11111 11.9333 8.35556 11.6222 7.73333 11C7.11111 10.3778 6.8 9.62222 6.8 8.73333ZM16 16.4667C15.6889 15.3111 15.0889 14.3333 14.2 13.5333C13.6667 13.0444 13.0667 12.6667 12.4 12.4C12.9778 12 13.4444 11.4778 13.8 10.8333C14.1556 10.1889 14.3333 9.47778 14.3333 8.7C14.3333 7.92222 14.1444 7.2 13.7667 6.53333C13.3889 5.86667 12.8667 5.34444 12.2 4.96667C11.5333 4.58889 10.8 4.4 10 4.4C9.2 4.4 8.46667 4.58889 7.8 4.96667C7.13333 5.34444 6.61111 5.86667 6.23333 6.53333C5.85556 7.2 5.66667 7.92222 5.66667 8.7C5.66667 9.47778 5.84444 10.1889 6.2 10.8333C6.55556 11.4778 7.02222 12 7.6 12.4C6.93333 12.6667 6.33333 13.0444 5.8 13.5333C4.91111 14.3333 4.31111 15.3111 4 16.4667C3.11111 15.6667 2.42222 14.7 1.93333 13.5667C1.44444 12.4333 1.2 11.2444 1.2 10C1.2 8.4 1.58889 6.92222 2.36667 5.56667C3.14444 4.21111 4.21111 3.14444 5.56667 2.36666C6.92222 1.58889 8.4 1.2 10 1.2C11.6 1.2 13.0778 1.58889 14.4333 2.36666C15.7889 3.14444 16.8556 4.21111 17.6333 5.56667C18.4111 6.92222 18.8 8.4 18.8 10C18.8 11.2444 18.5556 12.4333 18.0667 13.5667C17.5778 14.7 16.8889 15.6667 16 16.4667Z" fill="#2F5AAE"/>
</svg>
