<svg width="15" height="14" viewBox="0 0 15 14" fill="none" xmlns="http://www.w3.org/2000/svg">
<g clip-path="url(#clip0_25_2331)">
<path d="M12.07 6.76673C12.0388 6.73561 12.0233 6.7045 12.0233 6.67339L11.93 6.58006L8.42995 3.08006C8.33662 2.95561 8.21217 2.89339 8.05662 2.89339C7.90106 2.89339 7.76106 2.95561 7.63662 3.08006C7.51217 3.2045 7.44995 3.3445 7.44995 3.50006C7.44995 3.65561 7.51217 3.79561 7.63662 3.92006L10.1566 6.39339H1.05662C0.869951 6.39339 0.722173 6.44784 0.613284 6.55673C0.504396 6.66561 0.449951 6.81339 0.449951 7.00006C0.449951 7.18673 0.504396 7.32673 0.613284 7.42006C0.722173 7.51339 0.869951 7.56006 1.05662 7.56006H10.1566L7.63662 10.0801C7.51217 10.2045 7.44995 10.3445 7.44995 10.5001C7.44995 10.6556 7.5044 10.7878 7.61328 10.8967C7.72217 11.0056 7.86217 11.0601 8.03328 11.0601C8.2044 11.0601 8.33662 11.0134 8.42995 10.9201L11.93 7.42006C12.0233 7.32673 12.07 7.2645 12.07 7.23339C12.1011 7.07784 12.1011 6.92228 12.07 6.76673Z" fill="#161439"/>
</g>
<defs>
<clipPath id="clip0_25_2331">
<rect width="14" height="14" fill="white" transform="matrix(1 0 0 -1 0.449951 14)"/>
</clipPath>
</defs>
</svg>
