<svg width="6" height="12" viewBox="0 0 6 12" fill="none" xmlns="http://www.w3.org/2000/svg">
<path d="M0.693333 11.3333C0.551111 11.3333 0.417778 11.2977 0.293333 11.2266C0.168889 11.1555 0.0888889 11.0577 0.0533333 10.9333C0.0177778 10.8088 0.00888889 10.6755 0.0266667 10.5333C0.0444444 10.391 0.106667 10.2844 0.213333 10.2133L4.37333 5.99992L0.213333 1.78658C0.0711111 1.67992 0 1.52881 0 1.33325C0 1.1377 0.0622222 0.977696 0.186667 0.853251C0.311111 0.728807 0.471111 0.666585 0.666667 0.666585C0.862222 0.666585 1.01333 0.737696 1.12 0.879918L5.81333 5.51992C5.92 5.66214 5.97333 5.82214 5.97333 5.99992C5.97333 6.1777 5.92 6.3377 5.81333 6.47992L1.12 11.1199C1.01333 11.2621 0.853333 11.3333 0.64 11.3333H0.693333Z" fill="#2F5AAE"/>
</svg>
