<svg width="451" height="448" viewBox="0 0 451 448" fill="none" xmlns="http://www.w3.org/2000/svg">
<path d="M139.609 26.2202C161.762 -2.81018 203.255 -8.38545 232.285 13.7676L424.784 160.663C453.814 182.815 459.39 224.307 437.237 253.338C415.084 282.368 373.591 287.944 344.561 265.791L152.062 118.896C123.032 96.7429 117.457 55.2506 139.609 26.2202Z" fill="#2F5AAE"/>
<path d="M93.1631 131.272C115.017 102.635 155.949 97.1343 184.586 118.988L335.176 233.902C363.814 255.756 369.314 296.687 347.461 325.325C325.607 353.963 284.675 359.463 256.037 337.61L105.448 222.695C76.8098 200.843 71.3099 159.91 93.1631 131.272Z" fill="#2F5AAE"/>
<path d="M13.7431 204.418C36.1954 174.996 78.2484 169.345 107.671 191.798L285.253 327.309C314.676 349.761 320.326 391.815 297.874 421.238C275.422 450.66 233.368 456.311 203.946 433.859L26.3641 298.346C-3.05867 275.894 -8.70926 233.841 13.7431 204.418Z" fill="#2F5AAE"/>
</svg>
