<svg width="15" height="15" viewBox="0 0 15 15" fill="none" xmlns="http://www.w3.org/2000/svg">
<g clip-path="url(#clip0_93_3365)">
<path d="M12.4515 7.52771C12.4204 7.4966 12.4049 7.46549 12.4049 7.43438L12.3115 7.34104L8.81154 3.84104C8.71821 3.7166 8.59377 3.65438 8.43821 3.65438C8.28265 3.65438 8.14265 3.7166 8.01821 3.84104C7.89377 3.96549 7.83154 4.10549 7.83154 4.26104C7.83154 4.4166 7.89377 4.5566 8.01821 4.68105L10.5382 7.15438H1.43821C1.25154 7.15438 1.10377 7.20882 0.994876 7.31771C0.885987 7.4266 0.831543 7.57438 0.831543 7.76104C0.831543 7.94771 0.885987 8.08771 0.994876 8.18104C1.10377 8.27438 1.25154 8.32104 1.43821 8.32104H10.5382L8.01821 10.841C7.89377 10.9655 7.83154 11.1055 7.83154 11.261C7.83154 11.4166 7.88599 11.5488 7.99488 11.6577C8.10377 11.7666 8.24377 11.821 8.41488 11.821C8.58599 11.821 8.71821 11.7744 8.81154 11.681L12.3115 8.18104C12.4049 8.08771 12.4515 8.02549 12.4515 7.99438C12.4827 7.83882 12.4827 7.68327 12.4515 7.52771Z" fill="#161439"/>
</g>
<defs>
<clipPath id="clip0_93_3365">
<rect width="14" height="14" fill="white" transform="matrix(1 0 0 -1 0.831543 14.761)"/>
</clipPath>
</defs>
</svg>
