<svg width="15" height="16" viewBox="0 0 15 16" fill="none" xmlns="http://www.w3.org/2000/svg">
<path d="M10.3125 0.529785H4.6875C2.09906 0.529785 0 2.62885 0 5.21729V10.8423C0 13.4307 2.09906 15.5298 4.6875 15.5298H10.3125C12.9009 15.5298 15 13.4307 15 10.8423V5.21729C15 2.62885 12.9009 0.529785 10.3125 0.529785ZM13.5938 10.8423C13.5938 12.6517 12.1219 14.1236 10.3125 14.1236H4.6875C2.87813 14.1236 1.40625 12.6517 1.40625 10.8423V5.21729C1.40625 3.40792 2.87813 1.93604 4.6875 1.93604H10.3125C12.1219 1.93604 13.5938 3.40792 13.5938 5.21729V10.8423Z" fill="white"/>
<path d="M7.5 4.27979C5.42906 4.27979 3.75 5.95885 3.75 8.02979C3.75 10.1007 5.42906 11.7798 7.5 11.7798C9.57094 11.7798 11.25 10.1007 11.25 8.02979C11.25 5.95885 9.57094 4.27979 7.5 4.27979ZM7.5 10.3735C6.20813 10.3735 5.15625 9.32166 5.15625 8.02979C5.15625 6.73698 6.20813 5.68604 7.5 5.68604C8.79187 5.68604 9.84375 6.73698 9.84375 8.02979C9.84375 9.32166 8.79187 10.3735 7.5 10.3735Z" fill="white"/>
<path d="M11.5309 4.4984C11.8068 4.4984 12.0307 4.27468 12.0307 3.99871C12.0307 3.72274 11.8068 3.49902 11.5309 3.49902C11.2549 3.49902 11.0312 3.72274 11.0312 3.99871C11.0312 4.27468 11.2549 4.4984 11.5309 4.4984Z" fill="white"/>
</svg>
