<svg width="14" height="18" viewBox="0 0 14 18" fill="none" xmlns="http://www.w3.org/2000/svg">
<g id="Group">
<path id="Vector" d="M6.72002 0.0016221C6.75814 0.0145989 6.79545 0.033253 6.83519 0.0405524C7.16529 0.0981368 7.44266 0.252236 7.66165 0.50285C7.73545 0.587199 7.81169 0.617208 7.91956 0.614775C8.15395 0.608286 8.38835 0.613153 8.62274 0.613153C9.0015 0.613153 9.29348 0.766441 9.46461 1.11033C9.5157 1.21333 9.58951 1.21414 9.67953 1.21414C10.4062 1.21333 11.1329 1.21008 11.8596 1.21657C12.0162 1.21819 12.1776 1.23279 12.3276 1.27335C12.8734 1.42258 13.1622 1.93678 13.1573 2.33257C13.1565 2.40314 13.1606 2.47289 13.1606 2.54345C13.1606 7.25483 13.1606 11.9654 13.1597 16.6768C13.1597 16.8163 13.1606 16.9606 13.1289 17.0953C13.0073 17.6152 12.5701 17.9688 12.0308 17.998C11.9724 18.0012 11.914 17.9996 11.8548 17.9996C8.33887 17.9996 4.82298 18.0004 1.30789 17.9972C1.14001 17.9972 0.966444 17.9793 0.806667 17.9315C0.289218 17.7774 0.00372926 17.2851 0.00535136 16.8868C0.00535136 16.8163 0.00210717 16.7465 0.00210717 16.676C-0.00032598 11.9638 -0.00032598 7.2532 0.000485069 2.54183C0.000485069 2.40151 -0.00194807 2.25796 0.0288718 2.12251C0.155395 1.56776 0.616071 1.21982 1.22922 1.21333C1.77993 1.20765 2.33063 1.21171 2.88133 1.21171C3.0922 1.21171 3.30307 1.20846 3.51395 1.21252C3.59911 1.21414 3.65101 1.189 3.69238 1.10789C3.86675 0.76563 4.1563 0.610719 4.53506 0.610719C4.7808 0.610719 5.02736 0.609908 5.27311 0.610719C5.34529 0.610719 5.40693 0.60342 5.46046 0.540158C5.70053 0.256291 6.00549 0.0851601 6.37451 0.0291977C6.39641 0.0259535 6.41669 0.00973258 6.43778 0C6.53267 0.0016221 6.62675 0.0016221 6.72002 0.0016221ZM3.59911 1.77457C3.55369 1.76565 3.53179 1.75673 3.50908 1.75673C2.71831 1.75592 1.92672 1.75024 1.13595 1.75835C0.845597 1.7616 0.61526 1.96923 0.55362 2.25553C0.534155 2.34636 0.5301 2.44126 0.5301 2.53453C0.529289 7.25239 0.529289 11.9703 0.529289 16.6873C0.529289 16.74 0.527666 16.7928 0.531722 16.8455C0.557675 17.1439 0.747461 17.3767 1.02484 17.4367C1.11487 17.4562 1.21138 17.4521 1.30465 17.4521C4.82136 17.4529 8.33725 17.4529 11.854 17.4529C11.9067 17.4529 11.9594 17.4538 12.0121 17.4521C12.3025 17.4408 12.5401 17.2502 12.6017 16.9655C12.6236 16.8641 12.6277 16.7563 12.6277 16.6516C12.6293 12.7367 12.6285 8.82177 12.6285 4.90684C12.6285 4.09255 12.6253 3.27745 12.6293 2.46315C12.6318 1.97085 12.2668 1.74538 11.914 1.75186C11.1994 1.76484 10.4841 1.75592 9.76875 1.75592C9.7063 1.75592 9.64304 1.7616 9.56842 1.76484C9.56437 1.83459 9.55869 1.89136 9.55869 1.94895C9.55788 2.17766 9.56112 2.40638 9.55707 2.63428C9.55301 2.85651 9.45569 2.94978 9.23184 2.95546C9.19696 2.95627 9.16128 2.95627 9.1264 2.95627C7.42644 2.95627 5.7273 2.95627 4.02734 2.95627C3.97462 2.95627 3.9219 2.95789 3.86919 2.95384C3.71509 2.94329 3.621 2.8557 3.60154 2.70322C3.59424 2.64564 3.5983 2.58643 3.59748 2.52723C3.59911 2.28067 3.59911 2.03492 3.59911 1.77457ZM9.01366 2.39584C9.01366 2.10954 9.00393 1.82891 9.01691 1.5491C9.02745 1.31065 8.862 1.14277 8.6122 1.1525C8.31941 1.16467 8.02581 1.14763 7.73383 1.15818C7.55702 1.16467 7.43942 1.10384 7.33561 0.958659C6.94711 0.413635 6.20987 0.416068 5.81976 0.962714C5.72 1.10221 5.60645 1.16223 5.43694 1.15737C5.12631 1.14926 4.81568 1.15169 4.50505 1.15655C4.2739 1.1598 4.14981 1.28713 4.14494 1.51828C4.14251 1.64156 4.14413 1.76403 4.14413 1.88731C4.14413 2.05601 4.14413 2.22552 4.14413 2.38935C4.29742 2.43233 8.80198 2.43882 9.01366 2.39584Z" fill="#002D4F"/>
<path id="Vector_2" d="M1.76895 2.95453C1.72272 3.12242 1.71866 16.0546 1.75678 16.2257C1.88817 16.2614 11.2209 16.2671 11.3961 16.2322C11.4342 16.0927 11.4391 3.16054 11.3961 2.96832C11.3401 2.96426 11.2785 2.95615 11.2168 2.95615C10.9711 2.95372 10.7245 2.96102 10.4788 2.95129C10.2768 2.94318 10.1641 2.75096 10.2476 2.57658C10.285 2.49791 10.345 2.44519 10.4342 2.43303C10.4747 2.42735 10.5161 2.42492 10.5567 2.42492C10.9143 2.4241 11.272 2.42978 11.6289 2.42248C11.8722 2.41762 11.976 2.56198 11.9565 2.75501C11.9517 2.80124 11.9557 2.84909 11.9557 2.89532C11.9557 7.37231 11.9557 11.8493 11.9557 16.3271C11.9557 16.3912 11.9573 16.4561 11.9541 16.5201C11.9452 16.6726 11.873 16.757 11.7238 16.7853C11.6727 16.7951 11.6191 16.7959 11.5664 16.7959C8.24355 16.7967 4.92068 16.7967 1.59863 16.7959C1.54591 16.7959 1.49238 16.7959 1.44128 16.787C1.28394 16.7594 1.21095 16.6734 1.20202 16.5104C1.19959 16.4634 1.20121 16.4163 1.20121 16.3701C1.20121 11.8574 1.20121 7.34555 1.20121 2.83287C1.20121 2.78016 1.19959 2.72744 1.20365 2.67472C1.21581 2.52792 1.30097 2.44357 1.45021 2.42735C1.4794 2.4241 1.5086 2.4241 1.5378 2.4241C1.88979 2.4241 2.24098 2.42248 2.59297 2.4241C2.8152 2.42573 2.93848 2.52062 2.93929 2.68526C2.94091 2.85234 2.81682 2.95129 2.59946 2.95372C2.38859 2.95534 2.17772 2.95453 1.96684 2.95453C1.90277 2.95453 1.8387 2.95453 1.76895 2.95453Z" fill="#002D4F"/>
<path id="Vector_3" d="M8.07917 7.16861C7.41735 7.16861 6.75635 7.16861 6.09453 7.16861C6.04181 7.16861 5.98828 7.17185 5.93719 7.16374C5.80904 7.14347 5.71496 7.03479 5.70928 6.90988C5.70361 6.79147 5.77903 6.6836 5.90069 6.64792C5.95584 6.63169 6.01586 6.62683 6.07344 6.62683C7.41411 6.62602 8.75477 6.62602 10.0946 6.62683C10.1465 6.62683 10.2009 6.63007 10.2503 6.64386C10.3923 6.68198 10.4612 6.78742 10.4466 6.93341C10.4336 7.06155 10.3404 7.1532 10.2033 7.16699C10.1571 7.17185 10.11 7.16861 10.063 7.16861C9.40199 7.16861 8.74017 7.16861 8.07917 7.16861Z" fill="#002D4F"/>
<path id="Vector_4" d="M8.08257 10.4747C7.42156 10.4747 6.75975 10.4747 6.09874 10.4747C6.0517 10.4747 6.00466 10.4771 5.95843 10.4723C5.81812 10.4577 5.71755 10.3538 5.70944 10.2208C5.70214 10.0951 5.78324 9.98481 5.91463 9.95156C5.9706 9.93777 6.03061 9.93371 6.0882 9.93371C7.4167 9.9329 8.74519 9.9329 10.0745 9.93371C10.1329 9.93371 10.1921 9.93696 10.2481 9.95075C10.3916 9.98562 10.4614 10.0894 10.4476 10.237C10.4362 10.3668 10.3438 10.4585 10.2075 10.4731C10.1613 10.4779 10.1142 10.4755 10.0672 10.4755C9.40539 10.4747 8.74357 10.4747 8.08257 10.4747Z" fill="#002D4F"/>
<path id="Vector_5" d="M2.70744 6.30342C2.69041 5.62944 3.26544 5.13227 3.81939 5.13551C3.88184 5.13551 3.94997 5.14362 4.00593 5.16796C4.10082 5.20932 4.15597 5.33341 4.13975 5.43236C4.1211 5.5459 4.03594 5.63431 3.92077 5.6554C3.85183 5.66837 3.78127 5.67243 3.71314 5.68946C3.4236 5.76408 3.21921 6.04145 3.23787 6.32775C3.25895 6.64406 3.50713 6.89873 3.82344 6.93036C4.1065 6.95794 4.39361 6.75842 4.47552 6.47374C4.49337 6.4121 4.49986 6.34803 4.50878 6.28396C4.53149 6.12499 4.64747 6.01793 4.7894 6.02767C4.93458 6.0374 5.03272 6.15176 5.03758 6.31559C5.05056 6.79492 4.70911 7.26938 4.22897 7.4105C3.36682 7.66436 2.68797 6.99525 2.70744 6.30342Z" fill="#002D4F"/>
<path id="Vector_6" d="M2.69874 12.9088C2.6955 12.2332 3.28675 11.7271 3.86584 11.7482C3.98344 11.7522 4.06617 11.7993 4.11646 11.9063C4.16269 12.0021 4.14971 12.0953 4.0832 12.1683C4.03941 12.2162 3.97047 12.2462 3.90802 12.2697C3.85449 12.29 3.79285 12.2875 3.73607 12.3005C3.43842 12.367 3.22268 12.6436 3.23809 12.9388C3.25431 13.2535 3.50655 13.5163 3.8188 13.5447C4.11646 13.5722 4.39789 13.3743 4.47899 13.0783C4.49278 13.028 4.50089 12.9753 4.50738 12.9234C4.53009 12.7458 4.63553 12.6387 4.78476 12.6452C4.94373 12.6525 5.04024 12.7742 5.037 12.9631C5.02726 13.4806 4.63958 13.9494 4.13268 14.0564C3.5033 14.1903 2.90232 13.8229 2.74092 13.2024C2.71659 13.1075 2.71253 13.0069 2.69874 12.9088Z" fill="#002D4F"/>
<path id="Vector_7" d="M2.70741 9.60372C2.69281 8.93542 3.27595 8.42202 3.86234 8.44068C3.97183 8.44392 4.05456 8.48204 4.10809 8.57856C4.15837 8.66939 4.16 8.76591 4.09511 8.84215C4.04969 8.89568 3.97832 8.9338 3.91181 8.96056C3.85423 8.98408 3.78529 8.98084 3.72284 8.99381C3.45195 9.05221 3.22242 9.31499 3.24108 9.64265C3.25892 9.95328 3.5071 10.2023 3.8153 10.2355C4.10809 10.2672 4.39682 10.0668 4.47874 9.77242C4.49577 9.71078 4.50145 9.6459 4.51118 9.58263C4.53389 9.4334 4.64581 9.32959 4.78126 9.33364C4.92725 9.3377 5.03187 9.45124 5.03836 9.61264C5.05783 10.049 4.76504 10.5048 4.33762 10.6775C3.48845 11.0231 2.68713 10.3815 2.70741 9.60372Z" fill="#002D4F"/>
<path id="Vector_8" d="M8.07657 13.7813C7.41557 13.7813 6.75456 13.7813 6.09275 13.7813C6.04003 13.7813 5.9865 13.7846 5.9354 13.7765C5.80807 13.7578 5.71318 13.6491 5.70912 13.5234C5.70507 13.3969 5.79104 13.285 5.91999 13.2598C5.97677 13.2485 6.03597 13.2477 6.09437 13.2477C7.42287 13.2469 8.75055 13.2469 10.079 13.2477C10.1261 13.2477 10.1731 13.2485 10.2194 13.255C10.3743 13.2777 10.457 13.3799 10.4489 13.5332C10.4416 13.6719 10.3475 13.7667 10.2015 13.7789C10.1488 13.783 10.0961 13.7805 10.0434 13.7805C9.38723 13.7822 8.7319 13.7813 8.07657 13.7813Z" fill="#002D4F"/>
<path id="Vector_9" d="M7.48442 5.96934C7.02212 5.96934 6.55901 5.96934 6.09672 5.96853C6.03832 5.96853 5.9783 5.96934 5.92234 5.95636C5.79176 5.92635 5.7066 5.81524 5.70904 5.69115C5.71147 5.56057 5.81123 5.45027 5.94829 5.42837C5.98885 5.42188 6.03021 5.42513 6.07076 5.42513C7.0132 5.42513 7.95645 5.42432 8.89889 5.42594C8.96215 5.42594 9.02866 5.43162 9.08705 5.45351C9.19654 5.49488 9.24926 5.58166 9.24683 5.70088C9.24439 5.81686 9.18924 5.90527 9.07813 5.94095C9.01325 5.96204 8.94106 5.96772 8.87131 5.96772C8.40983 5.97096 7.94672 5.96934 7.48442 5.96934Z" fill="#002D4F"/>
<path id="Vector_10" d="M7.47717 12.5832C7.00838 12.5832 6.54041 12.584 6.07162 12.5823C6.00836 12.5823 5.94186 12.5775 5.88265 12.558C5.7691 12.5191 5.70016 12.4128 5.7099 12.3009C5.71963 12.1874 5.77559 12.0998 5.88833 12.0649C5.94267 12.0479 6.00268 12.0414 6.06027 12.0406C7.00919 12.0389 7.95731 12.0398 8.90624 12.0398C8.95247 12.0398 9.00032 12.0422 9.04493 12.0535C9.17956 12.0884 9.25174 12.189 9.24688 12.3236C9.24201 12.4534 9.15604 12.554 9.02222 12.5775C8.97112 12.5864 8.91678 12.5832 8.86487 12.5832C8.40258 12.5832 7.94028 12.5832 7.47717 12.5832Z" fill="#002D4F"/>
<path id="Vector_11" d="M7.47547 8.7323C7.93209 8.7323 8.38871 8.7323 8.84614 8.7323C8.89318 8.7323 8.94022 8.72986 8.98645 8.73473C9.14947 8.75095 9.24923 8.85801 9.24761 9.00887C9.24599 9.15891 9.1438 9.2611 8.97915 9.27732C8.95563 9.27976 8.93211 9.27894 8.90859 9.27894C7.95399 9.27894 6.99938 9.27894 6.04478 9.27894C6.00423 9.27894 5.96205 9.27813 5.92312 9.26921C5.79417 9.23758 5.70738 9.12728 5.70901 9.00319C5.71063 8.8791 5.79984 8.77042 5.93042 8.74284C5.98152 8.7323 6.03505 8.73392 6.08777 8.73392C6.55006 8.73149 7.01236 8.7323 7.47547 8.7323Z" fill="#002D4F"/>
<path id="Vector_12" d="M6.58403 1.2183C6.73002 1.22073 6.8533 1.34644 6.85087 1.48919C6.84843 1.63518 6.72515 1.75359 6.57754 1.75197C6.43155 1.75034 6.30827 1.62625 6.30909 1.4827C6.31071 1.34158 6.44129 1.21586 6.58403 1.2183Z" fill="#002D4F"/>
</g>
</svg>
