<svg width="550" height="373" viewBox="0 0 550 373" fill="none" xmlns="http://www.w3.org/2000/svg">
<path opacity="0.3" d="M508.235 294.327H385.454C379.709 294.327 375.051 289.669 375.051 283.924V115.349C375.051 109.604 379.709 104.946 385.454 104.946H508.235C513.981 104.946 518.638 109.604 518.638 115.349V283.924C518.638 289.669 513.981 294.327 508.235 294.327Z" fill="url(#paint0_linear_122_2170)"/>
<path d="M411.02 142.581H394.196C391.549 142.581 389.404 140.436 389.404 137.789V120.965C389.404 118.318 391.549 116.173 394.196 116.173H411.02C413.667 116.173 415.812 118.318 415.812 120.965V137.789C415.812 140.436 413.667 142.581 411.02 142.581Z" fill="white"/>
<path d="M386.842 125.058C391.997 129.254 396.269 133.692 399.242 138.492C402.014 132.33 413.098 118.094 418.731 114.66L414.06 109.725C414.06 109.725 403.985 120.503 398.992 131.148C395.44 127.946 390.882 125.626 386.842 125.058Z" fill="url(#paint1_linear_122_2170)"/>
<path d="M500.094 122.953H431.288C430.352 122.953 429.595 122.196 429.595 121.26C429.595 120.324 430.352 119.568 431.288 119.568H500.094C501.03 119.568 501.787 120.324 501.787 121.26C501.791 122.196 501.03 122.953 500.094 122.953Z" fill="white"/>
<path d="M500.094 127.942C500.779 127.942 501.339 128.501 501.339 129.187C501.339 129.872 500.779 130.431 500.094 130.431H431.288C430.603 130.431 430.043 129.872 430.043 129.187C430.043 128.501 430.603 127.942 431.288 127.942H500.094ZM500.094 127.494H431.288C430.352 127.494 429.595 128.251 429.595 129.187C429.595 130.122 430.352 130.879 431.288 130.879H500.094C501.03 130.879 501.787 130.122 501.787 129.187C501.791 128.255 501.03 127.494 500.094 127.494Z" fill="white"/>
<path d="M439.935 135.872C440.62 135.872 441.18 136.432 441.18 137.117C441.18 137.802 440.62 138.362 439.935 138.362H431.288C430.603 138.362 430.043 137.802 430.043 137.117C430.043 136.432 430.603 135.872 431.288 135.872H439.935ZM439.935 135.425H431.288C430.352 135.425 429.595 136.181 429.595 137.117C429.595 138.053 430.352 138.81 431.288 138.81H439.935C440.871 138.81 441.628 138.053 441.628 137.117C441.632 136.181 440.871 135.425 439.935 135.425Z" fill="white"/>
<path d="M459.912 135.872C460.597 135.872 461.157 136.432 461.157 137.117C461.157 137.802 460.597 138.362 459.912 138.362H446.097C445.412 138.362 444.852 137.802 444.852 137.117C444.852 136.432 445.412 135.872 446.097 135.872H459.912ZM459.912 135.425H446.097C445.161 135.425 444.404 136.181 444.404 137.117C444.404 138.053 445.161 138.81 446.097 138.81H459.912C460.848 138.81 461.605 138.053 461.605 137.117C461.609 136.181 460.848 135.425 459.912 135.425Z" fill="white"/>
<path d="M486.109 135.872C486.794 135.872 487.354 136.432 487.354 137.117C487.354 137.802 486.794 138.362 486.109 138.362H465.783C465.097 138.362 464.538 137.802 464.538 137.117C464.538 136.432 465.097 135.872 465.783 135.872H486.109ZM486.109 135.425H465.783C464.847 135.425 464.09 136.181 464.09 137.117C464.09 138.053 464.847 138.81 465.783 138.81H486.109C487.045 138.81 487.802 138.053 487.802 137.117C487.806 136.181 487.045 135.425 486.109 135.425Z" fill="white"/>
<path d="M411.02 162.804C413.416 162.804 415.364 164.752 415.364 167.148V183.972C415.364 186.368 413.416 188.316 411.02 188.316H394.196C391.8 188.316 389.852 186.368 389.852 183.972V167.148C389.852 164.752 391.8 162.804 394.196 162.804H411.02ZM411.02 162.356H394.196C391.549 162.356 389.404 164.501 389.404 167.148V183.972C389.404 186.619 391.549 188.764 394.196 188.764H411.02C413.667 188.764 415.812 186.619 415.812 183.972V167.148C415.812 164.501 413.667 162.356 411.02 162.356Z" fill="white"/>
<path d="M386.842 171.236C391.997 175.432 396.269 179.87 399.242 184.671C402.014 178.509 413.098 164.273 418.731 160.838L414.06 155.903C414.06 155.903 403.985 166.682 398.992 177.326C395.44 174.129 390.882 171.805 386.842 171.236Z" fill="url(#paint2_linear_122_2170)"/>
<path d="M500.094 169.136H431.288C430.352 169.136 429.595 168.379 429.595 167.443C429.595 166.507 430.352 165.75 431.288 165.75H500.094C501.03 165.75 501.787 166.507 501.787 167.443C501.791 168.375 501.03 169.136 500.094 169.136Z" fill="white"/>
<path d="M500.094 174.125C500.779 174.125 501.339 174.684 501.339 175.369C501.339 176.055 500.779 176.614 500.094 176.614H431.288C430.603 176.614 430.043 176.055 430.043 175.369C430.043 174.684 430.603 174.125 431.288 174.125H500.094ZM500.094 173.677H431.288C430.352 173.677 429.595 174.434 429.595 175.369C429.595 176.305 430.352 177.062 431.288 177.062H500.094C501.03 177.062 501.787 176.305 501.787 175.369C501.791 174.434 501.03 173.677 500.094 173.677Z" fill="white"/>
<path d="M441.22 184.993H431.292C430.356 184.993 429.599 184.236 429.599 183.3C429.599 182.364 430.356 181.608 431.292 181.608H441.22C442.156 181.608 442.913 182.364 442.913 183.3C442.913 184.232 442.156 184.993 441.22 184.993Z" fill="white"/>
<path d="M473.579 182.051C474.264 182.051 474.824 182.611 474.824 183.296C474.824 183.981 474.264 184.541 473.579 184.541H447.409C446.724 184.541 446.164 183.981 446.164 183.296C446.164 182.611 446.724 182.051 447.409 182.051H473.579ZM473.579 181.603H447.409C446.473 181.603 445.716 182.36 445.716 183.296C445.716 184.232 446.473 184.989 447.409 184.989H473.579C474.515 184.989 475.272 184.232 475.272 183.296C475.276 182.364 474.515 181.603 473.579 181.603Z" fill="white"/>
<path d="M411.02 208.987C413.415 208.987 415.363 210.935 415.363 213.331V230.155C415.363 232.551 413.415 234.499 411.02 234.499H394.195C391.799 234.499 389.851 232.551 389.851 230.155V213.326C389.851 210.93 391.799 208.982 394.195 208.982H411.02M411.02 208.539H394.195C391.549 208.539 389.404 210.684 389.404 213.331V230.155C389.404 232.801 391.549 234.946 394.195 234.946H411.02C413.666 234.946 415.811 232.801 415.811 230.155V213.326C415.811 210.684 413.666 208.539 411.02 208.539Z" fill="white"/>
<path d="M452.841 215.314H431.288C430.352 215.314 429.595 214.558 429.595 213.622C429.595 212.686 430.352 211.929 431.288 211.929H452.841C453.777 211.929 454.534 212.686 454.534 213.622C454.538 214.553 453.777 215.314 452.841 215.314Z" fill="white"/>
<path d="M492.038 212.372C492.723 212.372 493.283 212.932 493.283 213.617C493.283 214.302 492.723 214.862 492.038 214.862H460.727C460.042 214.862 459.482 214.302 459.482 213.617C459.482 212.932 460.042 212.372 460.727 212.372H492.038ZM492.038 211.924H460.727C459.791 211.924 459.034 212.681 459.034 213.617C459.034 214.553 459.791 215.31 460.727 215.31H492.038C492.974 215.31 493.731 214.553 493.731 213.617C493.731 212.686 492.974 211.924 492.038 211.924Z" fill="white"/>
<path d="M500.094 220.303C500.779 220.303 501.339 220.863 501.339 221.548C501.339 222.233 500.779 222.793 500.094 222.793H431.288C430.603 222.793 430.043 222.233 430.043 221.548C430.043 220.863 430.603 220.303 431.288 220.303H500.094ZM500.094 219.855H431.288C430.352 219.855 429.595 220.612 429.595 221.548C429.595 222.484 430.352 223.241 431.288 223.241H500.094C501.03 223.241 501.787 222.484 501.787 221.548C501.791 220.612 501.03 219.855 500.094 219.855Z" fill="white"/>
<path d="M477.784 231.171H431.288C430.352 231.171 429.595 230.415 429.595 229.479C429.595 228.543 430.352 227.786 431.288 227.786H477.784C478.72 227.786 479.477 228.543 479.477 229.479C479.477 230.415 478.72 231.171 477.784 231.171Z" fill="white"/>
<path d="M411.02 281.121H394.195C391.549 281.121 389.404 278.976 389.404 276.329V259.505C389.404 256.858 391.549 254.713 394.195 254.713H411.02C413.666 254.713 415.811 256.858 415.811 259.505V276.329C415.811 278.976 413.666 281.121 411.02 281.121Z" fill="white"/>
<path d="M500.094 258.551C500.779 258.551 501.339 259.11 501.339 259.796C501.339 260.481 500.779 261.041 500.094 261.041H431.288C430.603 261.041 430.043 260.481 430.043 259.796C430.043 259.11 430.603 258.551 431.288 258.551H500.094ZM500.094 258.103H431.288C430.352 258.103 429.595 258.86 429.595 259.796C429.595 260.732 430.352 261.488 431.288 261.488H500.094C501.03 261.488 501.787 260.732 501.787 259.796C501.787 258.86 501.03 258.103 500.094 258.103Z" fill="white"/>
<path d="M500.094 266.482C500.779 266.482 501.339 267.041 501.339 267.726C501.339 268.412 500.779 268.971 500.094 268.971H431.288C430.603 268.971 430.043 268.412 430.043 267.726C430.043 267.041 430.603 266.482 431.288 266.482H500.094ZM500.094 266.034H431.288C430.352 266.034 429.595 266.79 429.595 267.726C429.595 268.662 430.352 269.419 431.288 269.419H500.094C501.03 269.419 501.787 268.662 501.787 267.726C501.791 266.79 501.03 266.034 500.094 266.034Z" fill="white"/>
<path d="M477.784 277.35H431.288C430.352 277.35 429.595 276.593 429.595 275.657C429.595 274.721 430.352 273.964 431.288 273.964H477.784C478.72 273.964 479.477 274.721 479.477 275.657C479.477 276.593 478.72 277.35 477.784 277.35Z" fill="white"/>
<path d="M244.518 257.355C244.518 257.355 254.957 288.021 260.214 308.697C265.471 329.372 275.005 366.183 275.005 366.183H217.927V298.187L244.518 257.355Z" fill="url(#paint3_linear_122_2170)"/>
<path d="M333.619 127.104V127.118C333.561 129.675 331.976 130.637 329.925 129.719C329.132 129.361 328.85 128.824 328.819 128.761L328.814 128.752C327.149 131.358 324.569 128.38 324.569 128.38C324.054 129.746 322.854 130.687 321.757 130.879L318.201 138.577C314.453 150.171 300.625 192.001 292.143 205.534C289.255 210.142 253.439 205.082 253.439 205.082L264.974 176.189L275.825 177.51L302.667 131.018L305.434 124.055C305.434 124.055 310.665 109.174 311.404 105.636C312.142 102.103 318.734 94.1317 323.745 86.8906C326.669 82.6677 329.952 86.3398 327.502 92.5554C326.096 96.129 322.653 104.736 322.653 104.736C322.653 104.736 332.437 112.38 333.409 114.158C334.112 115.439 333.937 122.563 333.619 127.104Z" fill="url(#paint4_linear_122_2170)"/>
<path d="M308.269 119.756C308.269 119.756 309.935 114.059 313.611 111.52C317.292 108.981 320.14 108.408 321.936 107.226C323.732 106.044 325.662 107.315 324.869 109.944C324.112 112.465 319.612 116.952 319.612 116.952C319.612 116.952 321.596 122.08 316.983 126.11" stroke="black" stroke-miterlimit="10" stroke-linecap="round" stroke-linejoin="round"/>
<path d="M328.814 128.08L329.343 117.83" stroke="black" stroke-miterlimit="10" stroke-linecap="round" stroke-linejoin="round"/>
<path d="M319.742 121.86C319.742 121.86 319.415 124.977 320.669 126.401C321.699 127.57 324.435 127.91 324.56 125.761L325.053 116.446" stroke="black" stroke-miterlimit="10" stroke-linecap="round" stroke-linejoin="round"/>
<path d="M167.691 133.118C167.691 133.118 172.335 140.857 172.989 146.799C173.647 152.742 155.82 169.566 170.338 181.308C184.86 193.049 239.458 188.629 241.307 172.006C243.161 155.388 226.01 146.266 225.759 134.166C225.249 109.895 219.145 113.137 215.934 108.233C212.723 103.325 198.353 106.129 197.829 107.006C197.305 107.884 167.691 133.118 167.691 133.118Z" fill="black"/>
<path d="M238.598 366.187H217.927V298.187L218.975 296.579C226.297 301.595 239.749 291.801 239.749 291.801C239.229 300.202 237.913 306.507 234.805 313.78L238.598 366.187Z" fill="black"/>
<path d="M184.556 263.109C184.556 263.109 181.17 274.802 173.719 287.502C166.267 300.202 160.168 309.351 162.201 323.072C164.234 336.793 173.182 366.093 173.182 366.093H228.088L231.299 313.251C231.299 313.251 245.1 288.523 244.518 257.351C244.518 257.355 229.1 248.367 184.556 263.109Z" fill="url(#paint5_linear_122_2170)"/>
<path d="M196.181 282.343C196.181 282.343 213.247 283.552 216.942 263.499H220.332C220.332 263.499 219.57 274.762 212.325 282.24C205.084 289.718 193.75 288.375 193.75 288.375L196.181 282.343Z" fill="black"/>
<path d="M200.762 260.861C200.762 260.861 198.837 276.983 193.754 288.371C188.671 299.759 183.414 306.771 181.488 315.356C179.563 323.94 186.571 366.093 186.571 366.093" stroke="black" stroke-miterlimit="10" stroke-linecap="round" stroke-linejoin="round"/>
<path d="M142.721 194.343L118.965 212.847L63.9601 203.447L59.7686 216.152C59.7686 216.152 112.87 239.778 121.634 239.908C130.398 240.034 160.253 217.128 160.253 217.128L142.721 194.343Z" fill="url(#paint6_linear_122_2170)"/>
<path d="M261.087 215.01C273.366 194.007 267.213 175.504 267.213 175.504L225.759 169.915L196.575 166.61C196.575 166.61 182.604 164.837 175.492 166.61C168.377 168.388 139.327 195.369 139.327 195.369C139.327 195.369 151.857 223.483 167.956 227.885L178.457 220.943C178.457 220.943 185.237 252.277 184.552 263.114C184.552 263.114 196.772 266.414 221.071 264.547C241.715 262.957 244.509 257.364 244.509 257.364C244.509 257.364 244.339 234.158 243.927 226.192C244.742 224.557 246.851 218.978 248.495 213.859L261.087 215.01Z" fill="url(#paint7_linear_122_2170)"/>
<path d="M207 106.688C188.622 99.0666 167.279 117.857 174.395 135.313C178.425 145.205 185.685 151.04 193.445 153.942L190.893 166.068C190.893 166.068 195.017 175.284 205.603 176.471C214.833 177.506 217.927 171.263 217.927 171.263L212.517 155.701C216.619 154.936 220.045 153.413 222.163 151.402C230.667 143.324 216.333 110.562 207 106.688Z" fill="url(#paint8_linear_122_2170)"/>
<path d="M204.408 110.338C204.408 110.338 206.674 117.593 202.737 125.541C195.989 139.164 174.001 142.702 174.001 142.702C174.001 142.702 160.916 131.251 168.395 113.728C175.873 96.2052 200.006 91.2971 204.412 102.045C204.412 102.045 214.174 96.3798 215.943 108.238C215.939 108.233 211.935 114.718 204.408 110.338Z" fill="black"/>
<path d="M190.472 130.051C185.098 140.037 194.95 146.799 193.445 153.946C193.445 153.946 190.136 155.549 189.661 155.549C189.187 155.549 180.074 150.879 180.074 150.879L177.037 146.665L175.985 137.328L178.555 130.606" fill="black"/>
<path d="M185.564 138.026C185.564 138.026 182.192 134.26 179.129 137.149C176.635 139.504 178.686 145.491 184.18 147.059C186.061 147.596 187.628 146.584 186.836 144.685C186.169 143.082 185.658 140.27 185.564 138.026Z" fill="url(#paint9_linear_122_2170)"/>
<path d="M188.716 213.725L180.965 233.522C179.639 226.384 178.461 220.939 178.461 220.939L188.716 213.725Z" fill="black"/>
<path d="M252.861 214.253L248.504 213.855C249.583 210.482 250.465 207.307 250.64 205.592C251.132 200.801 248.405 196.108 245.351 191.961C245.718 192.306 251.629 197.899 253.439 203.447C254.339 206.21 253.73 210.532 252.861 214.253Z" fill="black"/>
<path d="M212.513 155.706C212.513 155.706 203.902 156.369 197.887 152.043C197.887 152.043 203.145 162.087 214.622 161.765L212.513 155.706Z" fill="url(#paint10_linear_122_2170)"/>
<path d="M62.536 233.522H18.3413C16.5904 233.522 15.0499 232.358 14.5708 230.674L0.0884875 179.624C-0.327979 178.155 0.778119 176.691 2.30516 176.691H46.4998C48.2508 176.691 49.7912 177.855 50.2704 179.539L64.7527 230.589C65.1736 232.058 64.0675 233.522 62.536 233.522Z" fill="white"/>
<path d="M64.7795 233.522H20.5804C18.8294 233.522 17.2889 232.358 16.8098 230.674L2.3275 179.624C1.91104 178.155 3.01713 176.691 4.54418 176.691H48.7388C50.4898 176.691 52.0303 177.855 52.5094 179.539L66.9917 230.589C67.4126 232.058 66.3065 233.522 64.7795 233.522Z" fill="black"/>
<path d="M50.3376 200.169H17.1054C15.4978 200.169 13.8364 198.866 13.3931 197.259C12.9497 195.651 13.8991 194.348 15.5067 194.348H48.7389C50.3466 194.348 52.008 195.651 52.4513 197.259C52.8902 198.866 51.9453 200.169 50.3376 200.169Z" fill="white"/>
<path d="M53.8216 212.35H20.5894C18.9818 212.35 17.3204 211.047 16.8771 209.439C16.4337 207.831 17.3831 206.528 18.9908 206.528H52.2229C53.8306 206.528 55.492 207.831 55.9353 209.439C56.3742 211.042 55.4293 212.35 53.8216 212.35Z" fill="white"/>
<path d="M68.5098 204.227C68.5098 204.227 63.8929 196.103 62.3166 194.791C60.7403 193.479 49.939 188.58 49.2808 188.495C47.8298 188.302 47.3552 192.552 49.0165 195.199C50.6824 197.845 58.9132 202.104 58.9132 202.104L61.4523 211.051L68.5098 204.227Z" fill="url(#paint11_linear_122_2170)"/>
<path d="M393.515 257.892C393.515 257.892 419.138 259.961 430.311 265.017C444.243 271.318 468.12 318.052 476.396 345.565C479.777 356.81 474.233 366.183 474.233 366.183H283.823C283.823 366.183 315.832 274.596 322.375 268.053C328.918 261.511 362.284 257.888 362.284 257.888H393.515V257.892Z" fill="url(#paint12_linear_122_2170)"/>
<path d="M346.669 193.99C346.669 193.99 337.323 203.219 346.669 211.629L354.613 200.299L346.669 193.99Z" fill="black"/>
<path d="M343.193 228.283C344.927 211.709 343.104 193.072 360.609 189.368C377.286 185.839 394.961 198.127 392.525 216.3C392.525 216.3 398.158 215.547 399.385 221.069C400.567 226.393 393.322 235.694 385.749 234.172C385.731 234.203 385.709 234.23 385.691 234.261L393.514 257.897C393.514 257.897 381.459 266.069 362.373 262.684L363.256 248.632C351.451 249.765 341.734 242.286 343.193 228.283Z" fill="url(#paint13_linear_122_2170)"/>
<path d="M394.316 216.34C394.316 216.34 399.242 213.85 399.824 207.307C400.406 200.765 393.514 198.194 393.514 198.194C393.514 198.194 394.097 189.901 387.791 186.395C381.482 182.888 374.035 178.334 364.313 174.478C354.586 170.623 340.158 178.961 345.442 196.323C349.996 211.306 378.974 205.901 378.974 205.901C378.974 205.901 377.483 208.62 377.442 212.56C377.389 217.513 380.51 219.613 380.51 219.613L379.019 224.302L381.912 225.704C381.907 225.708 387.644 215.543 394.316 216.34Z" fill="black"/>
<path d="M333.933 360.634C333.933 360.634 352.97 341.58 355.195 341.007C360.48 339.063 394.101 348.803 394.101 348.803C391.388 353.501 390.496 359.43 390.828 366.178H380.9C365.75 365.475 364.528 357.079 364.528 357.079L360.609 360.63H333.933V360.634Z" fill="url(#paint14_linear_122_2170)"/>
<path d="M434.637 344.15L418.4 296.149L429.613 343.46L434.637 344.15Z" fill="black"/>
<path d="M442.111 345.391C442.111 345.391 405.382 339.762 398.418 344.222C389.305 350.061 390.819 366.183 390.819 366.183" stroke="black" stroke-width="2" stroke-miterlimit="10" stroke-linecap="round"/>
<path d="M363.256 248.623C363.256 248.623 375.642 246.294 380.022 235.52C380.022 235.52 379.628 250.678 362.857 255.017L363.256 248.623Z" fill="url(#paint15_linear_122_2170)"/>
<path d="M341.134 366.183H399.511C399.511 363.119 397.026 360.634 393.963 360.634H341.134V366.183Z" fill="black"/>
<path d="M267.939 366.183H365.361C367.255 366.183 368.639 364.4 368.173 362.564L350.887 294.586C350.359 292.517 348.496 291.066 346.36 291.066H248.943C247.048 291.066 245.665 292.849 246.13 294.685L263.416 362.663C263.94 364.736 265.803 366.183 267.939 366.183Z" fill="black"/>
<path d="M263.461 366.183H360.882C362.777 366.183 364.16 364.4 363.695 362.564L346.409 294.586C345.881 292.517 344.018 291.066 341.882 291.066H244.46C242.566 291.066 241.182 292.849 241.648 294.685L258.933 362.663C259.457 364.736 261.325 366.183 263.461 366.183Z" fill="url(#paint16_linear_122_2170)"/>
<path d="M300.235 334.357C305.461 334.357 309.698 331.955 309.698 328.992C309.698 326.029 305.461 323.627 300.235 323.627C295.009 323.627 290.773 326.029 290.773 328.992C290.773 331.955 295.009 334.357 300.235 334.357Z" fill="white"/>
<path d="M283.559 80.1177C296.985 66.6922 296.985 44.925 283.559 31.4995C270.134 18.0739 248.366 18.0739 234.941 31.4995C221.515 44.925 221.515 66.6921 234.941 80.1177C248.366 93.5432 270.134 93.5433 283.559 80.1177Z" stroke="url(#paint17_linear_122_2170)" stroke-width="1.2835" stroke-miterlimit="10"/>
<path d="M259.251 87.2713C276.628 87.2713 290.715 73.1847 290.715 55.8079C290.715 38.4312 276.628 24.3446 259.251 24.3446C241.875 24.3446 227.788 38.4312 227.788 55.8079C227.788 73.1847 241.875 87.2713 259.251 87.2713Z" fill="url(#paint18_linear_122_2170)"/>
<path d="M284.616 58.709C286.227 44.6984 276.175 32.0351 262.164 30.4246C248.153 28.8142 235.49 38.8664 233.88 52.8769C232.269 66.8875 242.321 79.5508 256.332 81.1613C270.342 82.7717 283.006 72.7195 284.616 58.709Z" fill="white"/>
<path d="M259.251 59.1979C261.123 59.1979 262.641 57.6801 262.641 55.8079C262.641 53.9357 261.123 52.418 259.251 52.418C257.379 52.418 255.861 53.9357 255.861 55.8079C255.861 57.6801 257.379 59.1979 259.251 59.1979Z" fill="url(#paint19_linear_122_2170)"/>
<path d="M260.595 55.8079C260.595 56.5513 259.995 57.1514 259.252 57.1514C258.508 57.1514 257.908 56.5513 257.908 55.8079C257.908 55.0645 258.508 54.4645 259.252 54.4645C259.991 54.4645 260.595 55.0645 260.595 55.8079Z" fill="black"/>
<path d="M259.251 34.2144C258.526 34.2144 257.939 33.6278 257.939 32.9023V27.6495C257.939 26.924 258.526 26.3374 259.251 26.3374C259.977 26.3374 260.563 26.924 260.563 27.6495V32.9023C260.563 33.6278 259.977 34.2144 259.251 34.2144Z" fill="white"/>
<path d="M280.845 55.8079C280.845 55.0825 281.431 54.4958 282.157 54.4958H287.41C288.135 54.4958 288.722 55.0825 288.722 55.8079C288.722 56.5334 288.135 57.12 287.41 57.12H282.157C281.431 57.12 280.845 56.5334 280.845 55.8079Z" fill="white"/>
<path d="M259.251 77.4015C259.977 77.4015 260.563 77.9881 260.563 78.7136V83.9664C260.563 84.6919 259.977 85.2785 259.251 85.2785C258.526 85.2785 257.939 84.6919 257.939 83.9664V78.7136C257.939 77.9881 258.526 77.4015 259.251 77.4015Z" fill="white"/>
<path d="M237.658 55.808C237.658 56.5334 237.071 57.1201 236.346 57.1201H231.093C230.367 57.1201 229.781 56.5334 229.781 55.808C229.781 55.0825 230.367 54.4959 231.093 54.4959H236.346C237.071 54.4914 237.658 55.0825 237.658 55.808Z" fill="white"/>
<path d="M259.251 55.808L246.65 36.7804" stroke="black" stroke-width="1.7113" stroke-miterlimit="10" stroke-linecap="round" stroke-linejoin="round"/>
<path d="M251.423 67.2406L259.251 55.808" stroke="black" stroke-width="3.4226" stroke-miterlimit="10" stroke-linecap="round" stroke-linejoin="round"/>
<path d="M93.1127 115.416H147.002C151.928 115.416 155.923 111.422 155.923 106.496C155 98.7801 160.034 78.7987 147.002 78.9464H93.1127C80.1127 78.7718 85.0879 98.8069 84.1922 106.496C84.1922 111.422 88.1867 115.416 93.1127 115.416Z" fill="white" stroke="url(#paint20_linear_122_2170)" stroke-width="1.19" stroke-miterlimit="10"/>
<path d="M140.805 112.425C140.805 112.425 139.448 133.763 155.09 133.763C155.09 133.763 128.154 141.166 128.154 112.425" fill="white"/>
<path d="M140.805 112.425C140.805 112.425 139.448 133.763 155.09 133.763C155.09 133.763 128.154 141.166 128.154 112.425" stroke="url(#paint21_linear_122_2170)" stroke-width="1.19" stroke-miterlimit="10" stroke-linecap="round" stroke-linejoin="round"/>
<path d="M151.199 96.3708C151.199 96.3708 146.237 89.6491 141.624 90.2179C135.677 90.9523 143.483 105.269 135.664 105.233C130.778 105.211 126.927 94.2437 122.422 94.5975C117.783 94.9602 121.589 101.897 115.96 101.686C110.331 101.476 105.741 90.2895 101.361 90.2C96.9818 90.1149 97.2953 100.123 90.5199 98.5562" stroke="url(#paint22_linear_122_2170)" stroke-width="4.7599" stroke-miterlimit="10" stroke-linecap="round"/>
<path d="M354.613 84.9024C368.369 84.9024 379.52 73.751 379.52 59.995C379.52 46.239 368.369 35.0876 354.613 35.0876C340.857 35.0876 329.706 46.239 329.706 59.995C329.706 73.751 340.857 84.9024 354.613 84.9024Z" fill="url(#paint23_linear_122_2170)"/>
<path d="M361.935 54.6616C361.935 59.2651 358.657 62.9954 354.613 62.9954C350.569 62.9954 347.291 59.2651 347.291 54.6616C347.291 50.058 350.569 46.3278 354.613 46.3278C358.657 46.3278 361.935 50.058 361.935 54.6616Z" fill="white"/>
<path d="M370.931 75.0997C366.874 79.4883 361.057 82.2334 354.613 82.2334C348.169 82.2334 342.352 79.4838 338.295 75.0997C339.096 74.0697 339.992 73.1293 340.972 72.283C343.941 69.726 347.667 68.0243 351.733 67.5362C353.641 67.3078 355.58 67.3078 357.488 67.5362C362.906 68.1855 367.702 70.9754 370.931 75.0997Z" fill="white"/>
<path d="M507.349 237.566C517.424 237.566 525.592 229.398 525.592 219.322C525.592 209.247 517.424 201.078 507.349 201.078C497.273 201.078 489.105 209.247 489.105 219.322C489.105 229.398 497.273 237.566 507.349 237.566Z" fill="url(#paint24_linear_122_2170)"/>
<path d="M512.709 215.413C512.709 218.785 510.309 221.517 507.344 221.517C504.384 221.517 501.98 218.785 501.98 215.413C501.98 212.041 504.38 209.309 507.344 209.309C510.309 209.309 512.709 212.045 512.709 215.413Z" fill="white"/>
<path d="M519.301 230.392C516.327 233.608 512.069 235.618 507.344 235.618C502.62 235.618 498.361 233.603 495.388 230.392C495.974 229.64 496.633 228.95 497.349 228.328C499.525 226.452 502.253 225.211 505.235 224.848C506.632 224.678 508.052 224.678 509.454 224.848C513.421 225.323 516.936 227.365 519.301 230.392Z" fill="white"/>
<path opacity="0.3" d="M311.332 263.181C298.65 251.39 301.924 228.48 301.924 228.48H268.79C268.79 228.48 265.512 251.395 278.198 263.181H311.332Z" fill="url(#paint25_linear_122_2170)"/>
<path d="M282.224 222.359L278.455 225.849L287.424 235.536L291.193 232.046L282.224 222.359Z" fill="black"/>
<path d="M297.405 240.186H273.313C272.78 240.186 272.35 239.756 272.35 239.223C272.35 238.69 272.78 238.26 273.313 238.26H297.405C297.938 238.26 298.368 238.69 298.368 239.223C298.368 239.751 297.934 240.186 297.405 240.186Z" fill="white"/>
<path d="M298.104 245.833H274.011C273.478 245.833 273.048 245.403 273.048 244.87C273.048 244.337 273.478 243.907 274.011 243.907H298.104C298.636 243.907 299.066 244.337 299.066 244.87C299.066 245.398 298.636 245.833 298.104 245.833Z" fill="white"/>
<path d="M299.183 251.48H275.09C274.558 251.48 274.128 251.05 274.128 250.517C274.128 249.984 274.558 249.554 275.09 249.554H299.183C299.716 249.554 300.146 249.984 300.146 250.517C300.15 251.045 299.716 251.48 299.183 251.48Z" fill="white"/>
<path d="M288.292 257.127H277.827C277.294 257.127 276.864 256.697 276.864 256.164C276.864 255.631 277.294 255.201 277.827 255.201H288.292C288.825 255.201 289.255 255.631 289.255 256.164C289.255 256.692 288.825 257.127 288.292 257.127Z" fill="white"/>
<path opacity="0.3" d="M159.134 52.4314C171.816 40.6405 168.542 17.7303 168.542 17.7303H201.676C201.676 17.7303 204.954 40.6449 192.268 52.4314H159.134Z" fill="url(#paint26_linear_122_2170)"/>
<path d="M179.292 21.2834L183.06 24.7731L192.029 15.0871L188.261 11.5974L179.292 21.2834Z" fill="black"/>
<path d="M173.065 29.4317H197.158C197.691 29.4317 198.12 29.0018 198.12 28.4689C198.12 27.936 197.691 27.5061 197.158 27.5061H173.065C172.532 27.5061 172.103 27.936 172.103 28.4689C172.103 29.0018 172.532 29.4317 173.065 29.4317Z" fill="white"/>
<path d="M172.362 35.0787H196.455C196.987 35.0787 197.417 34.6488 197.417 34.1159C197.417 33.583 196.987 33.1531 196.455 33.1531H172.362C171.829 33.1531 171.399 33.583 171.399 34.1159C171.399 34.6488 171.834 35.0787 172.362 35.0787Z" fill="white"/>
<path d="M171.283 40.7256H195.375C195.908 40.7256 196.338 40.2957 196.338 39.7628C196.338 39.2299 195.908 38.8 195.375 38.8H171.283C170.75 38.8 170.32 39.2299 170.32 39.7628C170.32 40.2957 170.75 40.7256 171.283 40.7256Z" fill="white"/>
<path d="M182.178 46.3725H192.644C193.176 46.3725 193.606 45.9426 193.606 45.4097C193.606 44.8768 193.176 44.4469 192.644 44.4469H182.178C181.645 44.4469 181.215 44.8768 181.215 45.4097C181.211 45.9426 181.645 46.3725 182.178 46.3725Z" fill="white"/>
<path d="M458.183 355.166C458.183 359.125 460.781 361.785 464.65 361.785H466.222C466.284 364.221 468.273 366.183 470.727 366.183H483.74C486.23 366.183 488.25 364.163 488.25 361.673V344.15H466.217V347.715H463.862C461.667 347.715 459.719 348.987 458.9 350.957C458.425 352.108 458.183 353.527 458.183 355.166ZM460.507 355.166C460.507 353.832 460.691 352.717 461.054 351.844C461.502 350.764 462.63 350.039 463.866 350.039H466.222V359.465H464.654C462.097 359.461 460.507 357.818 460.507 355.166Z" fill="black"/>
<path d="M185.053 350.953C184.238 348.982 182.29 347.71 180.091 347.71H177.74V344.146H155.708V361.669C155.708 364.159 157.728 366.178 160.217 366.178H173.231C175.685 366.178 177.673 364.221 177.736 361.781H179.308C183.177 361.781 185.774 359.121 185.774 355.162C185.774 353.527 185.532 352.108 185.053 350.953ZM179.308 359.461H177.74V350.034H180.091C181.327 350.034 182.456 350.76 182.904 351.839C183.266 352.712 183.45 353.827 183.45 355.162C183.45 357.817 181.86 359.461 179.308 359.461Z" fill="black"/>
<path d="M147.786 366.093H115.776L108.885 319.095H154.678L147.786 366.093Z" fill="url(#paint27_linear_122_2170)"/>
<path d="M161.279 330.255H102.284L104.357 317.461H159.205L161.279 330.255Z" fill="url(#paint28_linear_122_2170)"/>
<path d="M111.455 317.461C111.455 317.461 107.367 297.6 87.2732 289.539C87.2732 289.539 107.367 285.567 120.801 305.777C120.801 305.777 111.455 271.43 100.242 254.726C100.242 254.726 117.998 265.111 127.111 305.696C127.111 305.696 125.709 277.484 132.601 260.441C132.601 260.441 141.83 277.811 142.529 305.696C142.529 305.696 149.886 273.535 176.639 266.759C176.639 266.759 158.619 291.801 151.637 317.461H111.455Z" fill="url(#paint29_linear_122_2170)"/>
<path d="M380.658 49.0056C384.482 33.2337 407.71 4.84681 444.404 12.9074C493.905 23.7803 487.806 84.5486 475.272 78.7942C462.8 73.0666 494.487 39.3911 529.668 65.1269C567.517 92.8152 544.736 150.991 504.783 152.276" stroke="black" stroke-miterlimit="10" stroke-linecap="round"/>
<path d="M167.275 247.449C167.275 248.905 166.097 250.083 164.642 250.083C163.187 250.083 162.009 248.905 162.009 247.449C162.009 245.994 163.187 244.816 164.642 244.816C166.097 244.821 167.275 245.999 167.275 247.449Z" fill="url(#paint30_linear_122_2170)"/>
<path d="M156.42 247.449C156.42 248.905 155.242 250.083 153.787 250.083C152.332 250.083 151.154 248.905 151.154 247.449C151.154 245.994 152.332 244.816 153.787 244.816C155.242 244.821 156.42 245.999 156.42 247.449Z" fill="url(#paint31_linear_122_2170)"/>
<path d="M145.56 247.449C145.56 248.905 144.383 250.083 142.927 250.083C141.472 250.083 140.294 248.905 140.294 247.449C140.294 245.994 141.472 244.816 142.927 244.816C144.383 244.821 145.56 245.999 145.56 247.449Z" fill="url(#paint32_linear_122_2170)"/>
<path d="M134.705 247.449C134.705 248.905 133.528 250.083 132.072 250.083C130.617 250.083 129.439 248.905 129.439 247.449C129.439 245.994 130.617 244.816 132.072 244.816C133.528 244.821 134.705 245.999 134.705 247.449Z" fill="url(#paint33_linear_122_2170)"/>
<path d="M529.586 327.222C530.29 324.242 528.444 321.256 525.465 320.553C522.485 319.849 519.499 321.694 518.795 324.674C518.092 327.654 519.937 330.64 522.917 331.344C525.896 332.047 528.882 330.202 529.586 327.222Z" fill="black"/>
<path d="M501.791 329.032C503.448 329.032 504.791 327.689 504.791 326.032C504.791 324.375 503.448 323.031 501.791 323.031C500.134 323.031 498.791 324.375 498.791 326.032C498.791 327.689 500.134 329.032 501.791 329.032Z" fill="url(#paint34_linear_122_2170)"/>
<path d="M354.613 148.514C355.34 148.514 355.93 147.925 355.93 147.198C355.93 146.47 355.34 145.881 354.613 145.881C353.886 145.881 353.297 146.47 353.297 147.198C353.297 147.925 353.886 148.514 354.613 148.514Z" fill="url(#paint35_linear_122_2170)"/>
<path d="M239.373 11.3804C242.37 11.3804 244.8 8.9504 244.8 5.95288C244.8 2.95536 242.37 0.525391 239.373 0.525391C236.375 0.525391 233.945 2.95536 233.945 5.95288C233.945 8.9504 236.375 11.3804 239.373 11.3804Z" fill="url(#paint36_linear_122_2170)"/>
<path d="M122.959 35.0876C122.959 36.2475 122.019 37.1923 120.855 37.1923C119.695 37.1923 118.75 36.2519 118.75 35.0876C118.75 33.9233 119.69 32.9829 120.855 32.9829C122.019 32.9829 122.959 33.9233 122.959 35.0876Z" fill="black"/>
<path d="M390.729 8.38893C392.074 8.38893 393.165 7.29825 393.165 5.95283C393.165 4.6074 392.074 3.51672 390.729 3.51672C389.384 3.51672 388.293 4.6074 388.293 5.95283C388.293 7.29825 389.384 8.38893 390.729 8.38893Z" fill="black"/>
<path d="M497.851 38.8872C501.117 37.5347 502.667 33.7912 501.315 30.526C499.962 27.2607 496.219 25.7102 492.953 27.0627C489.688 28.4153 488.137 32.1587 489.49 35.424C490.843 38.6892 494.586 40.2398 497.851 38.8872Z" fill="black"/>
<path d="M522.904 34.4794C523.716 31.0399 521.586 27.5932 518.147 26.7811C514.707 25.9689 511.26 28.0988 510.448 31.5383C509.636 34.9778 511.766 38.4244 515.206 39.2365C518.645 40.0487 522.092 37.9189 522.904 34.4794Z" fill="black"/>
<path d="M90.5199 344.168C94.0541 344.168 96.9191 341.303 96.9191 337.769C96.9191 334.235 94.0541 331.37 90.5199 331.37C86.9856 331.37 84.1206 334.235 84.1206 337.769C84.1206 341.303 86.9856 344.168 90.5199 344.168Z" fill="black"/>
<path d="M536.967 366.182H75.2987" stroke="black" stroke-width="2" stroke-miterlimit="10" stroke-linecap="round"/>
<path d="M477.493 371.108H170.741" stroke="black" stroke-width="2" stroke-miterlimit="10" stroke-linecap="round"/>
<defs>
<linearGradient id="paint0_linear_122_2170" x1="446.843" y1="102.978" x2="446.843" y2="287.82" gradientUnits="userSpaceOnUse">
<stop offset="0.00534759" stop-color="#004AAD"/>
<stop offset="1" stop-color="#004AAD"/>
</linearGradient>
<linearGradient id="paint1_linear_122_2170" x1="386.842" y1="124.108" x2="418.731" y2="124.108" gradientUnits="userSpaceOnUse">
<stop stop-color="#53B0B1"/>
<stop offset="1" stop-color="#6ACAD8"/>
</linearGradient>
<linearGradient id="paint2_linear_122_2170" x1="386.842" y1="170.287" x2="418.731" y2="170.287" gradientUnits="userSpaceOnUse">
<stop stop-color="#53B0B1"/>
<stop offset="1" stop-color="#6ACAD8"/>
</linearGradient>
<linearGradient id="paint3_linear_122_2170" x1="246.465" y1="259.284" x2="246.465" y2="349.408" gradientUnits="userSpaceOnUse">
<stop stop-color="#EE9AC5"/>
<stop offset="0.9947" stop-color="#E181BB"/>
</linearGradient>
<linearGradient id="paint4_linear_122_2170" x1="330.675" y1="90.3223" x2="283.012" y2="184.246" gradientUnits="userSpaceOnUse">
<stop stop-color="#FFD2B6"/>
<stop offset="1" stop-color="#FFB793"/>
</linearGradient>
<linearGradient id="paint5_linear_122_2170" x1="203.169" y1="259.284" x2="203.169" y2="349.408" gradientUnits="userSpaceOnUse">
<stop stop-color="#EE9AC5"/>
<stop offset="0.9947" stop-color="#E181BB"/>
</linearGradient>
<linearGradient id="paint6_linear_122_2170" x1="71.3286" y1="213.51" x2="136.164" y2="217.365" gradientUnits="userSpaceOnUse">
<stop stop-color="#FFD2B6"/>
<stop offset="1" stop-color="#FFB793"/>
</linearGradient>
<linearGradient id="paint7_linear_122_2170" x1="204.045" y1="259.752" x2="204.045" y2="184.043" gradientUnits="userSpaceOnUse">
<stop offset="0.00534759" stop-color="#004AAD"/>
<stop offset="1" stop-color="#004AAD"/>
</linearGradient>
<linearGradient id="paint8_linear_122_2170" x1="198.873" y1="118.346" x2="198.873" y2="193.754" gradientUnits="userSpaceOnUse">
<stop stop-color="#FFD2B6"/>
<stop offset="1" stop-color="#FFB793"/>
</linearGradient>
<linearGradient id="paint9_linear_122_2170" x1="178.076" y1="141.628" x2="187.044" y2="141.628" gradientUnits="userSpaceOnUse">
<stop stop-color="#FFD2B6"/>
<stop offset="1" stop-color="#FFB793"/>
</linearGradient>
<linearGradient id="paint10_linear_122_2170" x1="206.255" y1="153.863" x2="206.255" y2="164.106" gradientUnits="userSpaceOnUse">
<stop stop-color="#FFD2B6"/>
<stop offset="1" stop-color="#FFB793"/>
</linearGradient>
<linearGradient id="paint11_linear_122_2170" x1="72.0867" y1="200.761" x2="136.922" y2="204.616" gradientUnits="userSpaceOnUse">
<stop stop-color="#FFD2B6"/>
<stop offset="1" stop-color="#FFB793"/>
</linearGradient>
<linearGradient id="paint12_linear_122_2170" x1="380.657" y1="359.934" x2="380.657" y2="249.884" gradientUnits="userSpaceOnUse">
<stop stop-color="#FF9C00"/>
<stop offset="1" stop-color="#FFCA00"/>
</linearGradient>
<linearGradient id="paint13_linear_122_2170" x1="365.508" y1="200.849" x2="381.526" y2="274.892" gradientUnits="userSpaceOnUse">
<stop stop-color="#FFCBCA"/>
<stop offset="1" stop-color="#E994A8"/>
</linearGradient>
<linearGradient id="paint14_linear_122_2170" x1="333.539" y1="353.469" x2="397.35" y2="353.469" gradientUnits="userSpaceOnUse">
<stop stop-color="#FFCBCA"/>
<stop offset="1" stop-color="#E994A8"/>
</linearGradient>
<linearGradient id="paint15_linear_122_2170" x1="373.94" y1="236.937" x2="367.687" y2="254.029" gradientUnits="userSpaceOnUse">
<stop stop-color="#FFCBCA"/>
<stop offset="1" stop-color="#E994A8"/>
</linearGradient>
<linearGradient id="paint16_linear_122_2170" x1="292.436" y1="275.785" x2="309.725" y2="365.036" gradientUnits="userSpaceOnUse">
<stop offset="0.00534759" stop-color="#004AAD"/>
<stop offset="1" stop-color="#004AAD"/>
</linearGradient>
<linearGradient id="paint17_linear_122_2170" x1="234.736" y1="80.3201" x2="283.761" y2="31.2956" gradientUnits="userSpaceOnUse">
<stop offset="0.00534759" stop-color="#004AAD"/>
<stop offset="1" stop-color="#004AAD"/>
</linearGradient>
<linearGradient id="paint18_linear_122_2170" x1="227.789" y1="55.8064" x2="290.713" y2="55.8064" gradientUnits="userSpaceOnUse">
<stop offset="0.00534759" stop-color="#004AAD"/>
<stop offset="1" stop-color="#004AAD"/>
</linearGradient>
<linearGradient id="paint19_linear_122_2170" x1="255.859" y1="55.8063" x2="262.642" y2="55.8063" gradientUnits="userSpaceOnUse">
<stop offset="0.00534759" stop-color="#004AAD"/>
<stop offset="1" stop-color="#004AAD"/>
</linearGradient>
<linearGradient id="paint20_linear_122_2170" x1="156.406" y1="97.1805" x2="83.709" y2="97.1805" gradientUnits="userSpaceOnUse">
<stop offset="0.00534759" stop-color="#004AAD"/>
<stop offset="1" stop-color="#004AAD"/>
</linearGradient>
<linearGradient id="paint21_linear_122_2170" x1="155.356" y1="123.524" x2="127.889" y2="123.524" gradientUnits="userSpaceOnUse">
<stop offset="0.00534759" stop-color="#004AAD"/>
<stop offset="1" stop-color="#004AAD"/>
</linearGradient>
<linearGradient id="paint22_linear_122_2170" x1="152.263" y1="97.709" x2="89.452" y2="97.709" gradientUnits="userSpaceOnUse">
<stop offset="0.00534759" stop-color="#004AAD"/>
<stop offset="1" stop-color="#004AAD"/>
</linearGradient>
<linearGradient id="paint23_linear_122_2170" x1="354.614" y1="83.2104" x2="354.614" y2="26.8791" gradientUnits="userSpaceOnUse">
<stop offset="0.00534759" stop-color="#004AAD"/>
<stop offset="1" stop-color="#004AAD"/>
</linearGradient>
<linearGradient id="paint24_linear_122_2170" x1="507.347" y1="236.331" x2="507.347" y2="195.064" gradientUnits="userSpaceOnUse">
<stop offset="0.00534759" stop-color="#004AAD"/>
<stop offset="1" stop-color="#004AAD"/>
</linearGradient>
<linearGradient id="paint25_linear_122_2170" x1="289.874" y1="225.873" x2="289.874" y2="261.749" gradientUnits="userSpaceOnUse">
<stop offset="0.00534759" stop-color="#004AAD"/>
<stop offset="1" stop-color="#004AAD"/>
</linearGradient>
<linearGradient id="paint26_linear_122_2170" x1="180.594" y1="15.1211" x2="180.594" y2="50.9969" gradientUnits="userSpaceOnUse">
<stop offset="0.00534759" stop-color="#004AAD"/>
<stop offset="1" stop-color="#004AAD"/>
</linearGradient>
<linearGradient id="paint27_linear_122_2170" x1="131.78" y1="315.125" x2="131.78" y2="371.18" gradientUnits="userSpaceOnUse">
<stop offset="0.00534759" stop-color="#004AAD"/>
<stop offset="1" stop-color="#004AAD"/>
</linearGradient>
<linearGradient id="paint28_linear_122_2170" x1="131.78" y1="293.63" x2="131.78" y2="366.278" gradientUnits="userSpaceOnUse">
<stop offset="0.00534759" stop-color="#004AAD"/>
<stop offset="1" stop-color="#004AAD"/>
</linearGradient>
<linearGradient id="paint29_linear_122_2170" x1="131.956" y1="316.293" x2="131.956" y2="261.189" gradientUnits="userSpaceOnUse">
<stop stop-color="#53B0B1"/>
<stop offset="1" stop-color="#6ACAD8"/>
</linearGradient>
<linearGradient id="paint30_linear_122_2170" x1="131.309" y1="238.449" x2="172.839" y2="249.664" gradientUnits="userSpaceOnUse">
<stop offset="0.00534759" stop-color="#004AAD"/>
<stop offset="1" stop-color="#004AAD"/>
</linearGradient>
<linearGradient id="paint31_linear_122_2170" x1="130.571" y1="241.182" x2="172.101" y2="252.396" gradientUnits="userSpaceOnUse">
<stop offset="0.00534759" stop-color="#004AAD"/>
<stop offset="1" stop-color="#004AAD"/>
</linearGradient>
<linearGradient id="paint32_linear_122_2170" x1="129.833" y1="243.914" x2="171.363" y2="255.129" gradientUnits="userSpaceOnUse">
<stop offset="0.00534759" stop-color="#004AAD"/>
<stop offset="1" stop-color="#004AAD"/>
</linearGradient>
<linearGradient id="paint33_linear_122_2170" x1="129.095" y1="246.646" x2="170.625" y2="257.861" gradientUnits="userSpaceOnUse">
<stop offset="0.00534759" stop-color="#004AAD"/>
<stop offset="1" stop-color="#004AAD"/>
</linearGradient>
<linearGradient id="paint34_linear_122_2170" x1="498.128" y1="322.37" x2="507.181" y2="331.423" gradientUnits="userSpaceOnUse">
<stop offset="0.00534759" stop-color="#004AAD"/>
<stop offset="1" stop-color="#004AAD"/>
</linearGradient>
<linearGradient id="paint35_linear_122_2170" x1="353.005" y1="145.591" x2="356.981" y2="149.566" gradientUnits="userSpaceOnUse">
<stop offset="0.00534759" stop-color="#004AAD"/>
<stop offset="1" stop-color="#004AAD"/>
</linearGradient>
<linearGradient id="paint36_linear_122_2170" x1="232.746" y1="-0.67448" x2="249.127" y2="15.7064" gradientUnits="userSpaceOnUse">
<stop offset="0.00534759" stop-color="#004AAD"/>
<stop offset="1" stop-color="#004AAD"/>
</linearGradient>
</defs>
</svg>
