<svg width="65" height="65" viewBox="0 0 65 65" fill="none" xmlns="http://www.w3.org/2000/svg">
<g filter="url(#filter0_d_25_2396)">
<rect width="60" height="60" rx="30" fill="#1BCBE3" shape-rendering="crispEdges"/>
<rect x="0.5" y="0.5" width="59" height="59" rx="29.5" stroke="#019AAF" shape-rendering="crispEdges"/>
<g clip-path="url(#clip0_25_2396)">
<path d="M44.9333 22.0667C40.8111 20.3556 36.7278 18.6056 32.6833 16.8167C31.8278 16.5056 30.9333 16.35 30 16.35C29.0667 16.35 28.1722 16.5056 27.3167 16.8167L15.0667 22.0667C14.2889 22.4556 13.6667 22.9806 13.2 23.6417C12.7333 24.3028 12.5 25.0611 12.5 25.9167C12.5 26.7722 12.7333 27.5306 13.2 28.1917C13.6667 28.8528 14.2889 29.3389 15.0667 29.65L17.9833 30.9334V39.5667C17.9833 40.7334 18.3722 41.7056 19.15 42.4834C19.9278 43.2611 20.9 43.65 22.0667 43.65H37.9333C39.1 43.65 40.0722 43.2611 40.85 42.4834C41.6278 41.7056 42.0167 40.7334 42.0167 39.5667V35.95C42.0167 35.5611 41.8806 35.2306 41.6083 34.9584C41.3361 34.6861 41.025 34.55 40.675 34.55C40.325 34.55 40.0139 34.6861 39.7417 34.9584C39.4694 35.2306 39.3333 35.5611 39.3333 35.95V39.5667C39.3333 39.9556 39.1972 40.2861 38.925 40.5584C38.6528 40.8306 38.3222 40.9667 37.9333 40.9667H22.0667C21.6778 40.9667 21.3472 40.8306 21.075 40.5584C20.8028 40.2861 20.6667 39.9556 20.6667 39.5667V32.1L27.3167 34.9C28.1722 35.2889 29.0667 35.4834 30 35.4834C30.9333 35.4834 31.8278 35.2889 32.6833 34.9L44.9333 29.65C45.7111 29.3389 46.3333 28.8528 46.8 28.1917C47.2667 27.5306 47.5 26.7722 47.5 25.9167C47.5 25.0611 47.2667 24.3028 46.8 23.6417C46.3333 22.9806 45.7111 22.4556 44.9333 22.0667ZM43.8833 27.2C39.7611 28.9111 35.6389 30.6611 31.5167 32.45C31.05 32.6056 30.5444 32.6834 30 32.6834C29.4556 32.6834 28.95 32.6056 28.4833 32.45L16.1167 27.2C15.8056 27.0445 15.5722 26.85 15.4167 26.6167C15.2611 26.3834 15.1833 26.1306 15.1833 25.8584C15.1833 25.5861 15.2611 25.3334 15.4167 25.1C15.5722 24.8667 15.8056 24.7111 16.1167 24.6334L28.4833 19.3834C28.95 19.15 29.4556 19.0334 30 19.0334C30.5444 19.0334 31.05 19.15 31.5167 19.3834L43.8833 24.6334C44.1944 24.7111 44.4278 24.8667 44.5833 25.1C44.7389 25.3334 44.8167 25.5861 44.8167 25.8584C44.8167 26.1306 44.7389 26.3834 44.5833 26.6167C44.4278 26.85 44.1944 27.0445 43.8833 27.2ZM46.1 32.2167C45.7111 32.2167 45.4 32.3528 45.1667 32.625C44.9333 32.8972 44.8167 33.2278 44.8167 33.6167V39.5667C44.8167 39.9556 44.9333 40.2861 45.1667 40.5584C45.4 40.8306 45.7111 40.9667 46.1 40.9667C46.4889 40.9667 46.8194 40.8306 47.0917 40.5584C47.3639 40.2861 47.5 39.9556 47.5 39.5667V33.6167C47.5 33.2278 47.3639 32.8972 47.0917 32.625C46.8194 32.3528 46.4889 32.2167 46.1 32.2167Z" fill="white"/>
</g>
</g>
<defs>
<filter id="filter0_d_25_2396" x="0" y="0" width="65" height="65" filterUnits="userSpaceOnUse" color-interpolation-filters="sRGB">
<feFlood flood-opacity="0" result="BackgroundImageFix"/>
<feColorMatrix in="SourceAlpha" type="matrix" values="0 0 0 0 0 0 0 0 0 0 0 0 0 0 0 0 0 0 127 0" result="hardAlpha"/>
<feOffset dx="5" dy="5"/>
<feComposite in2="hardAlpha" operator="out"/>
<feColorMatrix type="matrix" values="0 0 0 0 0 0 0 0 0 0 0 0 0 0 0 0 0 0 0.25 0"/>
<feBlend mode="normal" in2="BackgroundImageFix" result="effect1_dropShadow_25_2396"/>
<feBlend mode="normal" in="SourceGraphic" in2="effect1_dropShadow_25_2396" result="shape"/>
</filter>
<clipPath id="clip0_25_2396">
<rect width="35" height="35" fill="white" transform="matrix(1 0 0 -1 12.5 47.5)"/>
</clipPath>
</defs>
</svg>
