<svg width="65" height="65" viewBox="0 0 65 65" fill="none" xmlns="http://www.w3.org/2000/svg">
<g filter="url(#filter0_d_25_2391)">
<rect width="60" height="60" rx="30" fill="#FF6666" shape-rendering="crispEdges"/>
<rect x="0.5" y="0.5" width="59" height="59" rx="29.5" stroke="#CE3B3B" shape-rendering="crispEdges"/>
<g clip-path="url(#clip0_25_2391)">
<path d="M20.55 15.8833C19.9278 15.8833 19.4222 16.0972 19.0333 16.525C18.6444 16.9528 18.45 17.4583 18.45 18.0417C18.45 18.625 18.6444 19.1306 19.0333 19.5583C19.4222 19.9861 19.9278 20.2 20.55 20.2C21.1722 20.2 21.6972 19.9861 22.125 19.5583C22.5528 19.1306 22.7667 18.625 22.7667 18.0417C22.7667 17.4583 22.5528 16.9528 22.125 16.525C21.6972 16.0972 21.1722 15.8833 20.55 15.8833ZM20.55 19.15C20.2389 19.15 19.9667 19.0528 19.7333 18.8583C19.5 18.6639 19.3833 18.4111 19.3833 18.1C19.3833 17.7889 19.5 17.5167 19.7333 17.2833C19.9667 17.05 20.2389 16.9333 20.55 16.9333C20.8611 16.9333 21.1333 17.05 21.3667 17.2833C21.6 17.5167 21.7167 17.7889 21.7167 18.1C21.7167 18.4111 21.6 18.6639 21.3667 18.8583C21.1333 19.0528 20.8611 19.15 20.55 19.15ZM22.7667 27.7833V25.8C22.7667 25.6444 22.7083 25.5083 22.5917 25.3917C22.475 25.275 22.3389 25.2167 22.1833 25.2167H17.05C16.8944 25.2167 16.7583 25.275 16.6417 25.3917C16.525 25.5083 16.4667 25.6444 16.4667 25.8V27.7833C16.4667 27.9389 16.525 28.0556 16.6417 28.1333C16.7583 28.2111 16.8944 28.25 17.05 28.25H22.1833C22.3389 28.25 22.475 28.2111 22.5917 28.1333C22.7083 28.0556 22.7667 27.9389 22.7667 27.7833ZM21.7167 27.2H17.5167V26.2667H21.7167V27.2ZM44.35 16.7H41.0833C40.4611 16.7 40.0333 16.9722 39.8 17.5167H26.15V17.1667C26.15 16.9333 25.9944 16.7778 25.6833 16.7L24.4 16.4667L25.1 15.4167C25.2556 15.1833 25.2556 14.95 25.1 14.7167L23.9333 13.55C23.7 13.3167 23.4667 13.2778 23.2333 13.4333L22.1833 14.1333L21.95 12.85C21.8722 12.6167 21.6778 12.5 21.3667 12.5H19.7333C19.4222 12.5 19.2667 12.6167 19.2667 12.85L18.9167 14.1333L17.8667 13.4333C17.6333 13.2778 17.4389 13.3167 17.2833 13.55L16 14.7167C15.8444 14.95 15.8444 15.1833 16 15.4167L16.7 16.4667L15.4167 16.7C15.1833 16.7778 15.0667 16.9333 15.0667 17.1667L14.95 17.5167C14.3278 17.5167 13.7639 17.7694 13.2583 18.275C12.7528 18.7806 12.5 19.3444 12.5 19.9667V35.95C12.5 36.65 12.7528 37.2333 13.2583 37.7C13.7639 38.1667 14.3278 38.4 14.95 38.4H16.9333C17.0889 39.3333 17.5167 40.0917 18.2167 40.675C18.9167 41.2583 19.6944 41.55 20.55 41.55C21.0944 41.55 21.6 41.4333 22.0667 41.2L20.9 45.75C20.7444 46.3722 20.8806 46.8389 21.3083 47.15C21.7361 47.4611 22.2222 47.5583 22.7667 47.4417C23.3111 47.325 23.6222 46.9944 23.7 46.45L25.8 38.4H27.4333V46.1C27.4333 46.4889 27.5694 46.8194 27.8417 47.0917C28.1139 47.3639 28.4444 47.5 28.8333 47.5C29.2222 47.5 29.5528 47.3639 29.825 47.0917C30.0972 46.8194 30.2333 46.4889 30.2333 46.1V38.4H31.8667L33.9667 46.45C34.1222 46.9944 34.4528 47.325 34.9583 47.4417C35.4639 47.5583 35.9306 47.4611 36.3583 47.15C36.7861 46.8389 36.9222 46.3722 36.7667 45.75L34.9 38.4H42.7167C43.4167 38.4 44 38.1667 44.4667 37.7C44.9333 37.2333 45.1667 36.65 45.1667 35.95V24.8667C45.1667 24.7111 45.1083 24.5944 44.9917 24.5167C44.875 24.4389 44.7583 24.4 44.6417 24.4C44.525 24.4 44.4083 24.4389 44.2917 24.5167C44.175 24.5944 44.1167 24.7111 44.1167 24.8667V35.95C44.1167 36.3389 43.9806 36.6694 43.7083 36.9417C43.4361 37.2139 43.1056 37.35 42.7167 37.35H24.1667C24.0889 36.4944 23.7 35.7556 23 35.1333C22.3 34.5111 21.5028 34.2 20.6083 34.2C19.7139 34.2 18.9167 34.5111 18.2167 35.1333C17.5167 35.7556 17.0889 36.4944 16.9333 37.35H14.95C14.5611 37.35 14.2306 37.2139 13.9583 36.9417C13.6861 36.6694 13.55 36.3389 13.55 35.95V21.0167H15.8833C15.8833 21.1722 15.9222 21.2889 16 21.3667L17.2833 22.5333C17.4389 22.7667 17.6333 22.8056 17.8667 22.65L18.9167 21.95L19.2667 23.2333C19.2667 23.4667 19.4222 23.5833 19.7333 23.5833H21.3667C21.6778 23.5833 21.8722 23.4667 21.95 23.2333L22.1833 21.95L23.2333 22.65C23.4667 22.8056 23.7 22.7667 23.9333 22.5333L25.1 21.3667C25.1778 21.2889 25.2167 21.1722 25.2167 21.0167H39.45L34.6667 25.8L32.2167 23.35C31.9833 23.1944 31.7306 23.1167 31.4583 23.1167C31.1861 23.1167 30.9722 23.1944 30.8167 23.35L29.1833 24.9833C29.1056 25.0611 29.0667 25.1778 29.0667 25.3333C29.0667 25.4889 29.1056 25.6056 29.1833 25.6833C29.2611 25.7611 29.3778 25.8 29.5333 25.8C29.6889 25.8 29.8056 25.7611 29.8833 25.6833L31.5167 24.1667L33.9667 26.6167C34.1222 26.7722 34.3361 26.85 34.6083 26.85C34.8806 26.85 35.1333 26.7722 35.3667 26.6167L42.25 19.6167C42.4056 19.4611 42.4444 19.2667 42.3667 19.0333C42.2889 18.8 42.1333 18.6833 41.9 18.6833H41.0833C40.9278 18.6833 40.8111 18.6056 40.7333 18.45C40.6556 18.2944 40.6556 18.1389 40.7333 17.9833C40.8111 17.8278 40.9278 17.75 41.0833 17.75H44.35C44.5056 17.75 44.6222 17.8083 44.7 17.925C44.7778 18.0417 44.8167 18.1389 44.8167 18.2167V21.4833C44.8167 21.6389 44.7583 21.7556 44.6417 21.8333C44.525 21.9111 44.4083 21.95 44.2917 21.95C44.175 21.95 44.0778 21.9111 44 21.8333C43.9222 21.7556 43.8833 21.6389 43.8833 21.4833V20.6667C43.8833 20.4333 43.7667 20.2778 43.5333 20.2C43.3 20.1222 43.1056 20.1611 42.95 20.3167L34.6667 28.6L32.2167 26.15C31.9833 25.9944 31.7306 25.9167 31.4583 25.9167C31.1861 25.9167 30.9722 25.9944 30.8167 26.15L26.6167 30.35C26.4611 30.5056 26.2861 30.5639 26.0917 30.525C25.8972 30.4861 25.7806 30.3694 25.7417 30.175C25.7028 29.9806 25.7611 29.8444 25.9167 29.7667L28.1333 27.4333C28.2889 27.3556 28.3667 27.2389 28.3667 27.0833C28.3667 26.9278 28.3083 26.7917 28.1917 26.675C28.075 26.5583 27.9583 26.5 27.8417 26.5C27.725 26.5 27.5889 26.5778 27.4333 26.7333L25.2167 28.95C24.9056 29.2611 24.75 29.6306 24.75 30.0583C24.75 30.4861 24.9056 30.8361 25.2167 31.1083C25.5278 31.3806 25.8778 31.5167 26.2667 31.5167C26.6556 31.5167 27.0056 31.4 27.3167 31.1667L31.5167 26.9667L33.9667 29.4167C34.1222 29.5722 34.3361 29.65 34.6083 29.65C34.8806 29.65 35.1333 29.5722 35.3667 29.4167L42.8333 21.8333C42.9111 22.1444 43.0861 22.4167 43.3583 22.65C43.6306 22.8833 43.9611 23 44.35 23C44.7389 23 45.0889 22.8444 45.4 22.5333C45.7111 22.2222 45.8667 21.8722 45.8667 21.4833V18.2167C45.8667 17.8278 45.7111 17.4778 45.4 17.1667C45.0889 16.8556 44.7389 16.7 44.35 16.7ZM22.7667 46.2167C22.6889 46.45 22.5139 46.5472 22.2417 46.5083C21.9694 46.4694 21.8333 46.2944 21.8333 45.9833L23.35 40.2667C23.8167 39.7222 24.0889 39.1 24.1667 38.4H24.75L22.7667 46.2167ZM29.1833 46.1C29.1833 46.3333 29.0667 46.45 28.8333 46.45C28.6 46.45 28.4833 46.3333 28.4833 46.1V38.4H29.1833V46.1ZM35.8333 45.9833C35.9111 46.2944 35.7944 46.4694 35.4833 46.5083C35.1722 46.5472 34.9778 46.45 34.9 46.2167L32.9167 38.4H33.85L35.8333 45.9833ZM19.9667 35.3667C20.2 35.2889 20.3944 35.25 20.55 35.25C21.25 35.25 21.8722 35.5028 22.4167 36.0083C22.9611 36.5139 23.2333 37.1556 23.2333 37.9333C23.2333 38.6333 22.9611 39.2361 22.4167 39.7417C21.8722 40.2472 21.25 40.5 20.55 40.5C19.85 40.5 19.2472 40.2472 18.7417 39.7417C18.2361 39.2361 17.9833 38.6528 17.9833 37.9917C17.9833 37.3306 18.1583 36.7667 18.5083 36.3C18.8583 35.8333 19.3444 35.5222 19.9667 35.3667ZM13.55 19.9667C13.55 19.5778 13.6861 19.2472 13.9583 18.975C14.2306 18.7028 14.5611 18.5667 14.95 18.5667L15.0667 18.9167C15.0667 19.15 15.1833 19.3056 15.4167 19.3833L16.7 19.6167L16.4667 20.0833H13.55V19.9667ZM23.4667 21.6L22.5333 20.9C22.3778 20.8222 22.125 20.8417 21.775 20.9583C21.425 21.075 21.25 21.25 21.25 21.4833L21.0167 22.5333H20.0833L19.85 21.4833C19.85 21.25 19.6944 21.075 19.3833 20.9583C19.0722 20.8417 18.8 20.8222 18.5667 20.9L17.6333 21.6L17.05 20.9L17.6333 19.9667C17.7889 19.8111 17.8083 19.5778 17.6917 19.2667C17.575 18.9556 17.4 18.7611 17.1667 18.6833L16 18.45V17.6333L17.1667 17.4C17.4 17.3222 17.575 17.1278 17.6917 16.8167C17.8083 16.5056 17.7889 16.2722 17.6333 16.1167L17.05 15.1833L17.6333 14.6L18.5667 15.1833C18.8 15.2611 19.0722 15.2417 19.3833 15.125C19.6944 15.0083 19.85 14.8333 19.85 14.6L20.0833 13.55H21.0167L21.25 14.6C21.25 14.8333 21.425 15.0083 21.775 15.125C22.125 15.2417 22.3778 15.2611 22.5333 15.1833L23.4667 14.6L24.05 15.1833L23.4667 16.1167C23.3111 16.2722 23.3111 16.5056 23.4667 16.8167C23.6222 17.1278 23.7778 17.3222 23.9333 17.4L25.1 17.6333V18.45L23.9333 18.6833C23.7778 18.7611 23.6222 18.9556 23.4667 19.2667C23.3111 19.5778 23.3111 19.8111 23.4667 19.9667L24.05 20.9L23.4667 21.6ZM40.7333 19.7333L40.3833 20.0833H24.6333L24.4 19.6167L25.6833 19.3833C25.9944 19.3056 26.15 19.15 26.15 18.9167V18.5667H39.5667C39.6444 18.8778 39.7806 19.1306 39.975 19.325C40.1694 19.5194 40.4222 19.6556 40.7333 19.7333ZM41.55 33.9667H31.8667C31.7111 33.9667 31.575 34.025 31.4583 34.1417C31.3417 34.2583 31.2833 34.375 31.2833 34.4917C31.2833 34.6083 31.3417 34.725 31.4583 34.8417C31.575 34.9583 31.7111 35.0167 31.8667 35.0167H41.55C41.7056 35.0167 41.8222 34.9583 41.9 34.8417C41.9778 34.725 42.0167 34.6083 42.0167 34.4917C42.0167 34.375 41.9778 34.2583 41.9 34.1417C41.8222 34.025 41.7056 33.9667 41.55 33.9667ZM41.55 31.75H35.8333C35.6778 31.75 35.5417 31.7889 35.425 31.8667C35.3083 31.9444 35.25 32.0611 35.25 32.2167C35.25 32.3722 35.3083 32.5083 35.425 32.625C35.5417 32.7417 35.6778 32.8 35.8333 32.8H41.55C41.7056 32.8 41.8222 32.7417 41.9 32.625C41.9778 32.5083 42.0167 32.3722 42.0167 32.2167C42.0167 32.0611 41.9778 31.9444 41.9 31.8667C41.8222 31.7889 41.7056 31.75 41.55 31.75ZM17.05 29.1833C16.8944 29.1833 16.7583 29.2417 16.6417 29.3583C16.525 29.475 16.4667 29.5917 16.4667 29.7083C16.4667 29.825 16.525 29.9417 16.6417 30.0583C16.7583 30.175 16.8944 30.2333 17.05 30.2333H20.55C20.7056 30.2333 20.8417 30.175 20.9583 30.0583C21.075 29.9417 21.1333 29.825 21.1333 29.7083C21.1333 29.5917 21.075 29.475 20.9583 29.3583C20.8417 29.2417 20.7056 29.1833 20.55 29.1833H17.05ZM20.55 39.1C20.7056 39.1 20.8417 39.0611 20.9583 38.9833C21.075 38.9056 21.1333 38.7889 21.1333 38.6333V37.2333C21.1333 37.0778 21.075 36.9417 20.9583 36.825C20.8417 36.7083 20.7056 36.65 20.55 36.65C20.3944 36.65 20.2778 36.7083 20.2 36.825C20.1222 36.9417 20.0833 37.0778 20.0833 37.2333V38.6333C20.0833 38.7889 20.1222 38.9056 20.2 38.9833C20.2778 39.0611 20.3944 39.1 20.55 39.1Z" fill="white"/>
</g>
</g>
<defs>
<filter id="filter0_d_25_2391" x="0" y="0" width="65" height="65" filterUnits="userSpaceOnUse" color-interpolation-filters="sRGB">
<feFlood flood-opacity="0" result="BackgroundImageFix"/>
<feColorMatrix in="SourceAlpha" type="matrix" values="0 0 0 0 0 0 0 0 0 0 0 0 0 0 0 0 0 0 127 0" result="hardAlpha"/>
<feOffset dx="5" dy="5"/>
<feComposite in2="hardAlpha" operator="out"/>
<feColorMatrix type="matrix" values="0 0 0 0 0 0 0 0 0 0 0 0 0 0 0 0 0 0 0.25 0"/>
<feBlend mode="normal" in2="BackgroundImageFix" result="effect1_dropShadow_25_2391"/>
<feBlend mode="normal" in="SourceGraphic" in2="effect1_dropShadow_25_2391" result="shape"/>
</filter>
<clipPath id="clip0_25_2391">
<rect width="35" height="35" fill="white" transform="matrix(1 0 0 -1 12.5 47.5)"/>
</clipPath>
</defs>
</svg>
