<svg width="17" height="17" viewBox="0 0 17 17" fill="none" xmlns="http://www.w3.org/2000/svg">
<path id="Vector" d="M7.47946 15.98C7.47946 16.2505 7.372 16.51 7.18073 16.7012C6.98946 16.8925 6.73003 17 6.45953 17H1.01993C0.749425 17 0.490003 16.8925 0.298729 16.7012C0.107456 16.51 0 16.2505 0 15.98V1.02C0 0.749479 0.107456 0.490038 0.298729 0.298751C0.490003 0.107464 0.749425 0 1.01993 0H6.45953C6.73003 0 6.98946 0.107464 7.18073 0.298751C7.372 0.490038 7.47946 0.749479 7.47946 1.02C7.47946 1.29052 7.372 1.54996 7.18073 1.74125C6.98946 1.93254 6.73003 2.04 6.45953 2.04H2.03985V14.96H6.45953C6.73003 14.96 6.98946 15.0675 7.18073 15.2588C7.372 15.45 7.47946 15.7095 7.47946 15.98ZM16.7004 7.77835L13.3007 4.37835C13.1091 4.18673 12.8492 4.07908 12.5782 4.07908C12.3073 4.07908 12.0474 4.18673 11.8558 4.37835C11.6642 4.56997 11.5565 4.82986 11.5565 5.10085C11.5565 5.37184 11.6642 5.63173 11.8558 5.82335L13.514 7.48H6.45953C6.18903 7.48 5.92961 7.58746 5.73834 7.77875C5.54706 7.97004 5.43961 8.22948 5.43961 8.5C5.43961 8.77052 5.54706 9.02996 5.73834 9.22125C5.92961 9.41254 6.18903 9.52 6.45953 9.52H13.514L11.8549 11.1783C11.6633 11.37 11.5557 11.6299 11.5557 11.9008C11.5557 12.1718 11.6633 12.4317 11.8549 12.6233C12.0465 12.815 12.3064 12.9226 12.5774 12.9226C12.8484 12.9226 13.1082 12.815 13.2998 12.6233L16.6996 9.22335C16.7947 9.12864 16.8702 9.01609 16.9218 8.89214C16.9733 8.76818 16.9999 8.63527 17 8.50103C17.0001 8.36678 16.9737 8.23384 16.9223 8.10983C16.8708 7.98581 16.7955 7.87317 16.7004 7.77835Z" fill="#002D4F"/>
</svg>
