<svg width="88" height="16" viewBox="0 0 88 16" fill="none" xmlns="http://www.w3.org/2000/svg">
<path d="M6.47196 12.5496C5.70396 12.5496 4.97866 12.4003 4.29596 12.1016C3.61326 11.8029 3.01596 11.3923 2.50396 10.8696C1.99196 10.3363 1.58666 9.72293 1.28796 9.02963C0.999956 8.32563 0.855957 7.57363 0.855957 6.77363C0.855957 5.97363 0.999956 5.22693 1.28796 4.53363C1.58666 3.84033 1.99196 3.23233 2.50396 2.70963C3.02666 2.17633 3.63466 1.76563 4.32796 1.47763C5.03196 1.17893 5.78926 1.02963 6.59996 1.02963C7.48526 1.02963 8.30666 1.20033 9.06396 1.54163C9.82126 1.88293 10.456 2.36833 10.968 2.99763L9.71996 4.24563C9.38926 3.77633 8.94666 3.41893 8.39196 3.17363C7.83726 2.91763 7.23996 2.78963 6.59996 2.78963C5.83196 2.78963 5.15466 2.96033 4.56796 3.30163C3.99196 3.63233 3.54396 4.09633 3.22396 4.69363C2.90396 5.29093 2.74396 5.98433 2.74396 6.77363C2.74396 7.56293 2.90396 8.26163 3.22396 8.86963C3.55466 9.46693 3.99726 9.93633 4.55196 10.2776C5.10666 10.6189 5.73596 10.7896 6.43996 10.7896C7.18666 10.7896 7.82666 10.6563 8.35996 10.3896C8.90396 10.1123 9.31996 9.70693 9.60796 9.17363C9.89596 8.62963 10.04 7.96293 10.04 7.17363L11.192 8.00563H6.40796V6.32563H11.944V6.58163C11.944 7.91493 11.704 9.02433 11.224 9.90963C10.7547 10.7949 10.1093 11.4563 9.28796 11.8936C8.46666 12.3309 7.52796 12.5496 6.47196 12.5496ZM17.2154 12.5496C16.4687 12.5496 15.7914 12.3736 15.1834 12.0216C14.5754 11.6589 14.09 11.1736 13.7274 10.5656C13.3754 9.95763 13.1994 9.28033 13.1994 8.53363C13.1994 7.78693 13.3754 7.11493 13.7274 6.51763C14.09 5.92033 14.5754 5.44563 15.1834 5.09363C15.7914 4.73093 16.4687 4.54963 17.2154 4.54963C17.9727 4.54963 18.6554 4.72563 19.2634 5.07763C19.8714 5.42963 20.3514 5.90963 20.7034 6.51763C21.066 7.11493 21.2474 7.78693 21.2474 8.53363C21.2474 9.28033 21.066 9.95763 20.7034 10.5656C20.3514 11.1736 19.8714 11.6589 19.2634 12.0216C18.6554 12.3736 17.9727 12.5496 17.2154 12.5496ZM17.2154 10.8536C17.6527 10.8536 18.0367 10.7576 18.3674 10.5656C18.7087 10.3629 18.97 10.0856 19.1514 9.73363C19.3434 9.38163 19.4394 8.98163 19.4394 8.53363C19.4394 8.08563 19.3434 7.69093 19.1514 7.34963C18.9594 7.00833 18.698 6.74163 18.3674 6.54963C18.0367 6.34693 17.6527 6.24563 17.2154 6.24563C16.7887 6.24563 16.4047 6.34693 16.0634 6.54963C15.7327 6.74163 15.4714 7.00833 15.2794 7.34963C15.098 7.69093 15.0074 8.08563 15.0074 8.53363C15.0074 8.98163 15.098 9.38163 15.2794 9.73363C15.4714 10.0856 15.7327 10.3629 16.0634 10.5656C16.4047 10.7576 16.7887 10.8536 17.2154 10.8536ZM26.391 12.5496C25.6443 12.5496 24.967 12.3736 24.359 12.0216C23.751 11.6589 23.2657 11.1736 22.903 10.5656C22.551 9.95763 22.375 9.28033 22.375 8.53363C22.375 7.78693 22.551 7.11493 22.903 6.51763C23.2657 5.92033 23.751 5.44563 24.359 5.09363C24.967 4.73093 25.6443 4.54963 26.391 4.54963C27.1483 4.54963 27.831 4.72563 28.439 5.07763C29.047 5.42963 29.527 5.90963 29.879 6.51763C30.2417 7.11493 30.423 7.78693 30.423 8.53363C30.423 9.28033 30.2417 9.95763 29.879 10.5656C29.527 11.1736 29.047 11.6589 28.439 12.0216C27.831 12.3736 27.1483 12.5496 26.391 12.5496ZM26.391 10.8536C26.8283 10.8536 27.2123 10.7576 27.543 10.5656C27.8843 10.3629 28.1457 10.0856 28.327 9.73363C28.519 9.38163 28.615 8.98163 28.615 8.53363C28.615 8.08563 28.519 7.69093 28.327 7.34963C28.135 7.00833 27.8737 6.74163 27.543 6.54963C27.2123 6.34693 26.8283 6.24563 26.391 6.24563C25.9643 6.24563 25.5803 6.34693 25.239 6.54963C24.9083 6.74163 24.647 7.00833 24.455 7.34963C24.2737 7.69093 24.183 8.08563 24.183 8.53363C24.183 8.98163 24.2737 9.38163 24.455 9.73363C24.647 10.0856 24.9083 10.3629 25.239 10.5656C25.5803 10.7576 25.9643 10.8536 26.391 10.8536ZM35.2466 15.7496C34.436 15.7496 33.7266 15.6003 33.1186 15.3016C32.5106 15.0136 32.02 14.6029 31.6466 14.0696L32.7986 12.9176C33.108 13.3016 33.46 13.5896 33.8546 13.7816C34.2493 13.9736 34.724 14.0696 35.2786 14.0696C35.972 14.0696 36.5213 13.8883 36.9266 13.5256C37.332 13.1736 37.5346 12.6883 37.5346 12.0696V10.1816L37.8386 8.48563L37.5346 6.77363V4.70963H39.2946V12.0696C39.2946 12.8056 39.124 13.4456 38.7826 13.9896C38.4413 14.5443 37.9666 14.9763 37.3586 15.2856C36.7506 15.5949 36.0466 15.7496 35.2466 15.7496ZM35.1666 12.2296C34.484 12.2296 33.8653 12.0643 33.3106 11.7336C32.7666 11.3923 32.3346 10.9283 32.0146 10.3416C31.7053 9.75493 31.5506 9.09893 31.5506 8.37363C31.5506 7.64833 31.7053 6.99763 32.0146 6.42163C32.3346 5.84563 32.7666 5.39233 33.3106 5.06163C33.8653 4.72033 34.484 4.54963 35.1666 4.54963C35.7746 4.54963 36.308 4.67233 36.7666 4.91763C37.2253 5.16293 37.5826 5.50433 37.8386 5.94163C38.0946 6.36833 38.2226 6.86963 38.2226 7.44563V9.33363C38.2226 9.89893 38.0893 10.4003 37.8226 10.8376C37.5666 11.2749 37.2093 11.6163 36.7506 11.8616C36.292 12.1069 35.764 12.2296 35.1666 12.2296ZM35.5186 10.5656C35.9453 10.5656 36.3186 10.4749 36.6386 10.2936C36.9586 10.1123 37.204 9.86163 37.3746 9.54163C37.556 9.21093 37.6466 8.82693 37.6466 8.38963C37.6466 7.95233 37.556 7.57363 37.3746 7.25363C37.204 6.92293 36.9586 6.66693 36.6386 6.48563C36.3186 6.30433 35.9453 6.21363 35.5186 6.21363C35.092 6.21363 34.7133 6.30433 34.3826 6.48563C34.0626 6.66693 33.812 6.92293 33.6306 7.25363C33.4493 7.57363 33.3586 7.95233 33.3586 8.38963C33.3586 8.81633 33.4493 9.19493 33.6306 9.52563C33.812 9.85633 34.0626 10.1123 34.3826 10.2936C34.7133 10.4749 35.092 10.5656 35.5186 10.5656ZM41.4098 12.3896V0.869629H43.1698V12.3896H41.4098ZM48.8565 12.5496C48.0885 12.5496 47.3952 12.3789 46.7765 12.0376C46.1685 11.6856 45.6832 11.2056 45.3205 10.5976C44.9685 9.98963 44.7925 9.30693 44.7925 8.54963C44.7925 7.79233 44.9685 7.11493 45.3205 6.51763C45.6725 5.90963 46.1472 5.42963 46.7445 5.07763C47.3525 4.72563 48.0245 4.54963 48.7605 4.54963C49.4752 4.54963 50.1045 4.71493 50.6485 5.04563C51.2032 5.37633 51.6352 5.82963 51.9445 6.40563C52.2645 6.98163 52.4245 7.63763 52.4245 8.37363C52.4245 8.50163 52.4138 8.63493 52.3925 8.77363C52.3818 8.90163 52.3605 9.04563 52.3285 9.20563H46.0245V7.76563H51.4165L50.7605 8.34163C50.7392 7.87233 50.6485 7.47763 50.4885 7.15763C50.3285 6.83763 50.0992 6.59233 49.8005 6.42163C49.5125 6.25093 49.1552 6.16563 48.7285 6.16563C48.2805 6.16563 47.8912 6.26163 47.5605 6.45363C47.2298 6.64563 46.9738 6.91763 46.7925 7.26963C46.6112 7.61093 46.5205 8.02163 46.5205 8.50163C46.5205 8.98163 46.6165 9.40293 46.8085 9.76563C47.0005 10.1283 47.2725 10.4109 47.6245 10.6136C47.9765 10.8056 48.3818 10.9016 48.8405 10.9016C49.2352 10.9016 49.5978 10.8323 49.9285 10.6936C50.2698 10.5549 50.5578 10.3523 50.7925 10.0856L51.9125 11.2216C51.5392 11.6589 51.0858 11.9896 50.5525 12.2136C50.0192 12.4376 49.4538 12.5496 48.8565 12.5496ZM58.862 8.16563V6.56563H61.662C62.047 6.56563 62.383 6.49093 62.67 6.34163C62.969 6.18163 63.204 5.96293 63.374 5.68563C63.545 5.39763 63.63 5.06163 63.63 4.67763C63.63 4.29363 63.545 3.96293 63.374 3.68563C63.204 3.39763 62.969 3.17893 62.67 3.02963C62.383 2.86963 62.047 2.78963 61.662 2.78963H58.862V1.18963H61.759C62.462 1.18963 63.092 1.33363 63.647 1.62163C64.212 1.90963 64.655 2.31493 64.974 2.83763C65.305 3.36033 65.47 3.97363 65.47 4.67763C65.47 5.38163 65.305 5.99493 64.974 6.51763C64.655 7.04033 64.212 7.44563 63.647 7.73363C63.092 8.02163 62.462 8.16563 61.759 8.16563H58.862ZM57.598 12.3896V1.18963H59.438V12.3896H57.598ZM67.175 12.3896V0.869629H68.935V12.3896H67.175ZM74.269 12.5496C73.576 12.5496 72.947 12.3736 72.381 12.0216C71.827 11.6696 71.384 11.1949 71.053 10.5976C70.733 9.98963 70.573 9.31233 70.573 8.56563C70.573 7.80833 70.733 7.13093 71.053 6.53363C71.384 5.92563 71.827 5.44563 72.381 5.09363C72.947 4.73093 73.576 4.54963 74.269 4.54963C74.8559 4.54963 75.373 4.67763 75.821 4.93363C76.28 5.17893 76.643 5.52033 76.909 5.95763C77.1759 6.39493 77.309 6.89093 77.309 7.44563V9.65363C77.309 10.2083 77.1759 10.7043 76.909 11.1416C76.653 11.5789 76.296 11.9256 75.837 12.1816C75.379 12.4269 74.8559 12.5496 74.269 12.5496ZM74.557 10.8856C75.208 10.8856 75.731 10.6669 76.125 10.2296C76.531 9.79233 76.733 9.23233 76.733 8.54963C76.733 8.09093 76.643 7.68563 76.461 7.33363C76.28 6.98163 76.024 6.70963 75.693 6.51763C75.373 6.31493 74.995 6.21363 74.557 6.21363C74.131 6.21363 73.752 6.31493 73.421 6.51763C73.101 6.70963 72.845 6.98163 72.653 7.33363C72.472 7.68563 72.381 8.09093 72.381 8.54963C72.381 9.00833 72.472 9.41363 72.653 9.76563C72.845 10.1176 73.101 10.3949 73.421 10.5976C73.752 10.7896 74.131 10.8856 74.557 10.8856ZM76.621 12.3896V10.3256L76.925 8.45363L76.621 6.59763V4.70963H78.382V12.3896H76.621ZM82.975 12.4696L79.695 4.70963H81.631L83.871 10.4056H83.311L85.679 4.70963H87.631L84.063 12.4696H82.975ZM80.687 15.5896L83.071 10.6776L84.063 12.4696L82.639 15.5896H80.687Z" fill="white"/>
</svg>
