<svg width="57" height="11" viewBox="0 0 57 11" fill="none" xmlns="http://www.w3.org/2000/svg">
<path d="M4.98862 10.5425C4.30732 10.5427 3.66792 10.4169 3.07052 10.1651C2.48252 9.90393 1.96442 9.54473 1.51622 9.08753C1.07742 8.63033 0.73202 8.09843 0.47982 7.49183C0.22762 6.88523 0.101519 6.23193 0.101319 5.53193C0.101119 4.83193 0.226921 4.18323 0.478821 3.58583C0.730621 2.97903 1.08042 2.44693 1.52832 1.98953C1.97622 1.53203 2.49882 1.17723 3.09602 0.925133C3.70262 0.672933 4.36062 0.546734 5.06992 0.546534C5.84462 0.546334 6.55862 0.695533 7.21212 0.993933C7.86552 1.29243 8.41162 1.72163 8.85042 2.28153L7.94062 3.19173C7.63252 2.74383 7.22642 2.40333 6.72242 2.17013C6.21832 1.92753 5.66762 1.80643 5.07032 1.80653C4.36092 1.80673 3.73102 1.96563 3.18042 2.28303C2.63922 2.60053 2.21462 3.03933 1.90682 3.59943C1.60822 4.15953 1.45912 4.80353 1.45932 5.53153C1.45952 6.26883 1.61372 6.91753 1.92182 7.47743C2.23002 8.03733 2.64542 8.47583 3.16822 8.79303C3.69092 9.11023 4.28832 9.26873 4.96032 9.26863C5.64162 9.26843 6.22962 9.13753 6.72422 8.87613C7.22812 8.61463 7.61532 8.23183 7.88592 7.72783C8.15642 7.21443 8.29162 6.58903 8.29142 5.85173L9.08952 6.42543L4.88952 6.42663L4.88922 5.22263L9.64922 5.22133V5.41733C9.64962 6.54663 9.44912 7.49403 9.04802 8.25953C8.65622 9.01563 8.10572 9.58503 7.39652 9.96793C6.69662 10.3508 5.89402 10.5423 4.98862 10.5425ZM14.4168 10.54C13.7541 10.5402 13.1567 10.391 12.6246 10.0925C12.0925 9.78463 11.6724 9.36943 11.3643 8.84683C11.0562 8.32423 10.902 7.73163 10.9018 7.06903C10.9016 6.41563 11.0508 5.82763 11.3493 5.30483C11.6572 4.78213 12.0678 4.37133 12.581 4.07253C13.1036 3.76443 13.6869 3.61023 14.3309 3.61003C14.9469 3.60993 15.4883 3.74973 15.955 4.02963C16.4311 4.30953 16.7998 4.69673 17.0613 5.19133C17.3321 5.68593 17.4676 6.24583 17.4678 6.87123C17.4678 6.96453 17.4631 7.06723 17.4538 7.17923C17.4445 7.28193 17.4259 7.40323 17.3979 7.54323L11.7839 7.54473L11.7837 6.49473L16.7257 6.49343L16.2638 6.89953C16.2637 6.45153 16.1842 6.07353 16.0255 5.76563C15.8667 5.44833 15.6426 5.20573 15.3533 5.03783C15.0639 4.86053 14.7139 4.77193 14.3032 4.77203C13.8739 4.77223 13.4959 4.86563 13.1693 5.05233C12.8427 5.23913 12.5907 5.50053 12.4135 5.83653C12.2362 6.17263 12.1477 6.56933 12.1478 7.02663C12.1479 7.49333 12.2414 7.90393 12.4281 8.25853C12.6149 8.60383 12.881 8.87443 13.2264 9.07033C13.5717 9.25693 13.9684 9.35013 14.4164 9.35003C14.7898 9.34993 15.1304 9.28453 15.4384 9.15373C15.7557 9.02303 16.0263 8.82693 16.2502 8.56553L17.0624 9.39133C16.7452 9.76473 16.3533 10.0495 15.8867 10.2456C15.4294 10.4417 14.9394 10.5399 14.4168 10.54ZM19.8132 10.3985L19.8106 0.962533L21.0706 0.962234L21.0732 10.3982L19.8132 10.3985ZM18.1737 4.89703L18.1734 3.74903L22.7094 3.74783L22.7097 4.89583L18.1737 4.89703ZM27.3616 10.3965L27.359 0.680534L28.675 0.680233L28.6776 10.3962L27.3616 10.3965ZM31.9089 10.3953L31.9064 0.959334L33.1664 0.958933L33.1689 10.3949L31.9089 10.3953ZM30.2695 4.89373L30.2692 3.74573L34.8052 3.74453L34.8055 4.89253L30.2695 4.89373ZM43.8814 10.5321C43.1907 10.5322 42.5467 10.4064 41.9493 10.1546C41.3519 9.89343 40.8291 9.53423 40.381 9.07703C39.9329 8.61053 39.5827 8.07393 39.3306 7.46733C39.0877 6.86073 38.9662 6.21213 38.966 5.52143C38.9658 4.82143 39.087 4.17273 39.3295 3.57533C39.5813 2.96863 39.9265 2.43653 40.3651 1.97903C40.813 1.52163 41.3309 1.16673 41.9188 0.914633C42.5161 0.662433 43.16 0.536333 43.8507 0.536133C44.5414 0.535933 45.1807 0.661733 45.7688 0.913533C46.3662 1.16543 46.889 1.51993 47.3371 1.97713C47.7852 2.43433 48.1353 2.96623 48.3875 3.57283C48.6397 4.17943 48.7659 4.83273 48.766 5.53273C48.7662 6.22343 48.6404 6.87213 48.3886 7.47883C48.1367 8.08563 47.7869 8.61773 47.339 9.07513C46.9005 9.53263 46.3826 9.89213 45.7853 10.1535C45.1974 10.4057 44.5627 10.5319 43.8814 10.5321ZM43.853 9.27213C44.553 9.27193 45.1643 9.11303 45.6869 8.79563C46.2188 8.46883 46.6387 8.02533 46.9466 7.46523C47.2544 6.89583 47.4082 6.24713 47.408 5.51913C47.4079 4.97783 47.3191 4.48313 47.1416 4.03523C46.9642 3.57793 46.7167 3.18133 46.3993 2.84543C46.0819 2.50953 45.7085 2.25293 45.2791 2.07573C44.8497 1.88913 44.3737 1.79593 43.851 1.79613C43.1604 1.79633 42.5491 1.95513 42.0172 2.27263C41.4946 2.59003 41.0794 3.02883 40.7715 3.58893C40.473 4.14903 40.3238 4.79303 40.324 5.52103C40.3242 6.06243 40.4083 6.56633 40.5764 7.03293C40.7539 7.49023 40.9967 7.88683 41.3048 8.22283C41.6222 8.54933 41.9956 8.80593 42.425 8.99253C42.8637 9.17903 43.3397 9.27223 43.853 9.27213ZM55.1929 10.389L55.1919 6.51103C55.1919 6.00703 55.0329 5.59173 54.7149 5.26513C54.3979 4.93863 53.9869 4.77533 53.4829 4.77553C53.1469 4.77563 52.8484 4.85033 52.5871 4.99973C52.3258 5.14913 52.1206 5.35453 51.9713 5.61593C51.822 5.87733 51.7474 6.17593 51.7475 6.51193L51.2295 6.21813C51.2293 5.71413 51.3412 5.26603 51.5651 4.87403C51.789 4.48193 52.1016 4.17383 52.5028 3.94973C52.9041 3.71633 53.3569 3.59953 53.8609 3.59943C54.3649 3.59923 54.8079 3.72513 55.1909 3.97703C55.5829 4.22893 55.8909 4.56023 56.1149 4.97083C56.3389 5.37203 56.4509 5.80133 56.4519 6.25873L56.4529 10.3887L55.1929 10.389ZM50.4886 10.3903L50.4868 3.74033L51.7468 3.73993L51.7486 10.3899L50.4886 10.3903Z" fill="white"/>
</svg>
