<svg width="15" height="16" viewBox="0 0 15 16" fill="none" xmlns="http://www.w3.org/2000/svg">
<path d="M10.3125 0.529785H4.6875C2.09906 0.529785 0 2.62885 0 5.21729V10.8423C0 13.4307 2.09906 15.5298 4.6875 15.5298H10.3125C12.9009 15.5298 15 13.4307 15 10.8423V5.21729C15 2.62885 12.9009 0.529785 10.3125 0.529785ZM13.5938 10.8423C13.5938 12.6517 12.1219 14.1236 10.3125 14.1236H4.6875C2.87813 14.1236 1.40625 12.6517 1.40625 10.8423V5.21729C1.40625 3.40792 2.87813 1.93604 4.6875 1.93604H10.3125C12.1219 1.93604 13.5938 3.40792 13.5938 5.21729V10.8423Z" fill="white"/>
</svg>
