<svg width="15" height="16" viewBox="0 0 15 16" fill="none" xmlns="http://www.w3.org/2000/svg">
<path d="M7.50187 0.529785H7.49813C3.36281 0.529785 0 3.89354 0 8.02979C0 9.67041 0.52875 11.1911 1.42781 12.4257L0.493125 15.212L3.37594 14.2904C4.56187 15.0761 5.97656 15.5298 7.50187 15.5298C11.6372 15.5298 15 12.1651 15 8.02979C15 3.89447 11.6372 0.529785 7.50187 0.529785ZM11.8659 11.1207C11.685 11.6317 10.9669 12.0554 10.3941 12.1792C10.0022 12.2626 9.49031 12.3292 7.76719 11.6148C5.56312 10.7017 4.14375 8.46198 4.03312 8.31666C3.92719 8.17135 3.1425 7.13073 3.1425 6.05448C3.1425 4.97823 3.68906 4.45416 3.90938 4.22917C4.09031 4.04448 4.38937 3.9601 4.67625 3.9601C4.76906 3.9601 4.8525 3.96479 4.9275 3.96854C5.14781 3.97791 5.25844 3.99104 5.40375 4.33885C5.58469 4.77479 6.02531 5.85104 6.07781 5.96167C6.13125 6.07229 6.18469 6.22229 6.10969 6.3676C6.03938 6.5176 5.9775 6.58416 5.86687 6.71166C5.75625 6.83916 5.65125 6.93667 5.54062 7.07353C5.43937 7.1926 5.325 7.3201 5.4525 7.54042C5.58 7.75604 6.02063 8.4751 6.66937 9.0526C7.50656 9.7979 8.18531 10.036 8.42812 10.1373C8.60906 10.2123 8.82469 10.1945 8.95687 10.0538C9.12469 9.87292 9.33187 9.57292 9.54281 9.2776C9.69281 9.06573 9.88219 9.03948 10.0809 9.11448C10.2834 9.18478 11.355 9.71447 11.5753 9.82415C11.7956 9.93478 11.9409 9.98729 11.9944 10.0801C12.0469 10.1729 12.0469 10.6089 11.8659 11.1207Z" fill="white"/>
</svg>
