<svg width="6" height="11" viewBox="0 0 6 11" fill="none" xmlns="http://www.w3.org/2000/svg">
<path d="M0.693333 10.833C0.551111 10.833 0.417778 10.7975 0.293333 10.7263C0.168889 10.6552 0.0888889 10.5575 0.0533333 10.433C0.0177778 10.3086 0.00888889 10.1752 0.0266667 10.033C0.0444444 9.89079 0.106667 9.78412 0.213333 9.71301L4.37333 5.49967L0.213333 1.28634C0.0711111 1.17967 0 1.02856 0 0.833008C0 0.637452 0.0622222 0.477452 0.186667 0.353007C0.311111 0.228563 0.471111 0.166341 0.666667 0.166341C0.862222 0.166341 1.01333 0.237452 1.12 0.379674L5.81333 5.01967C5.92 5.1619 5.97333 5.3219 5.97333 5.49967C5.97333 5.67745 5.92 5.83745 5.81333 5.97967L1.12 10.6197C1.01333 10.7619 0.853333 10.833 0.64 10.833H0.693333Z" fill="#161439"/>
</svg>
