<svg width="21" height="16" viewBox="0 0 21 16" fill="none" xmlns="http://www.w3.org/2000/svg">
<path d="M20.75 7.19342C20.6944 7.13564 20.6667 7.07786 20.6667 7.02009L20.5 6.84675L14.25 0.346751C14.0833 0.115639 13.8611 8.34859e-05 13.5833 8.34373e-05C13.3056 8.33887e-05 13.0556 0.115639 12.8333 0.346751C12.6111 0.577861 12.5 0.837861 12.5 1.12675C12.5 1.41564 12.6111 1.67564 12.8333 1.90675L17.3333 6.50008L1.08333 6.50008C0.750001 6.50008 0.486113 6.60119 0.291668 6.80341C0.0972237 7.00564 1.37895e-06 7.28008 1.31834e-06 7.62675C1.25772e-06 7.97341 0.0972234 8.23341 0.291668 8.40675C0.486112 8.58008 0.750001 8.66675 1.08333 8.66675L17.3333 8.66675L12.8333 13.3468C12.6111 13.5779 12.5 13.8379 12.5 14.1268C12.5 14.4156 12.5972 14.6612 12.7917 14.8634C12.9861 15.0656 13.2361 15.1668 13.5417 15.1668C13.8472 15.1668 14.0833 15.0801 14.25 14.9068L20.5 8.40675C20.6667 8.23342 20.75 8.11786 20.75 8.06009C20.8056 7.7712 20.8056 7.48231 20.75 7.19342Z" fill="#06042E"/>
</svg>
