<svg width="22" height="27" viewBox="0 0 22 27" fill="none" xmlns="http://www.w3.org/2000/svg">
<path d="M20.1289 23.6381C19.0035 25.25 17.8103 26.823 15.9934 26.8489C14.1766 26.8879 13.5935 25.8219 11.5326 25.8219C9.45809 25.8219 8.82079 26.8229 7.09879 26.8879C5.32259 26.9529 3.98029 25.172 2.84139 23.5991C0.52279 20.3883 -1.2534 14.4737 1.13299 10.496C2.31259 8.52015 4.42779 7.27225 6.71919 7.23325C8.45469 7.20725 10.1089 8.36415 11.1801 8.36415C12.2376 8.36415 14.2444 6.97325 16.346 7.18125C17.2273 7.22025 19.695 7.51925 21.2814 9.75505C21.1594 9.83305 18.3391 11.4189 18.3662 14.7077C18.4069 18.6334 21.9593 19.9463 22 19.9593C21.9593 20.0503 21.4305 21.8312 20.1289 23.6381ZM12.3868 2.83955C13.3766 1.76055 15.0172 0.941648 16.3731 0.889648C16.5494 2.41055 15.9121 3.94445 14.963 5.03635C14.0274 6.14135 12.4817 6.99925 10.9631 6.88225C10.7597 5.38735 11.519 3.82745 12.3868 2.83955Z" fill="white"/>
</svg>
