<svg width="85" height="16" viewBox="0 0 85 16" fill="none" xmlns="http://www.w3.org/2000/svg">
<path d="M0.169922 11.8896L4.77792 0.689629H6.05792L10.6339 11.8896H8.64992L5.06592 2.81763H5.73792L2.12192 11.8896H0.169922ZM2.44192 9.72963V8.12963H8.37792V9.72963H2.44192ZM16.2683 12.0496C15.6816 12.0496 15.159 11.9269 14.7003 11.6816C14.2416 11.4256 13.879 11.0789 13.6123 10.6416C13.3563 10.2043 13.2283 9.70833 13.2283 9.15363V6.94563C13.2283 6.39093 13.3616 5.89493 13.6283 5.45763C13.895 5.02033 14.2576 4.67893 14.7163 4.43363C15.175 4.17763 15.6923 4.04963 16.2683 4.04963C16.9616 4.04963 17.5856 4.23093 18.1403 4.59363C18.7056 4.94563 19.1483 5.42563 19.4683 6.03363C19.799 6.63093 19.9643 7.30833 19.9643 8.06563C19.9643 8.81233 19.799 9.48963 19.4683 10.0976C19.1483 10.6949 18.7056 11.1696 18.1403 11.5216C17.5856 11.8736 16.9616 12.0496 16.2683 12.0496ZM15.9803 10.3856C16.407 10.3856 16.7803 10.2896 17.1003 10.0976C17.431 9.89493 17.687 9.61763 17.8683 9.26563C18.0603 8.91363 18.1563 8.50833 18.1563 8.04963C18.1563 7.59093 18.0603 7.18563 17.8683 6.83363C17.687 6.48163 17.431 6.20963 17.1003 6.01763C16.7803 5.81493 16.407 5.71363 15.9803 5.71363C15.5536 5.71363 15.175 5.81493 14.8443 6.01763C14.5136 6.20963 14.2576 6.48163 14.0763 6.83363C13.895 7.18563 13.8043 7.59093 13.8043 8.04963C13.8043 8.50833 13.895 8.91363 14.0763 9.26563C14.2576 9.61763 14.5136 9.89493 14.8443 10.0976C15.175 10.2896 15.5536 10.3856 15.9803 10.3856ZM12.1563 15.0896V4.20963H13.9163V6.27363L13.6123 8.14563L13.9163 10.0016V15.0896H12.1563ZM25.7096 12.0496C25.1229 12.0496 24.6002 11.9269 24.1416 11.6816C23.6829 11.4256 23.3202 11.0789 23.0536 10.6416C22.7976 10.2043 22.6696 9.70833 22.6696 9.15363V6.94563C22.6696 6.39093 22.8029 5.89493 23.0696 5.45763C23.3362 5.02033 23.6989 4.67893 24.1576 4.43363C24.6162 4.17763 25.1336 4.04963 25.7096 4.04963C26.4029 4.04963 27.0269 4.23093 27.5816 4.59363C28.1469 4.94563 28.5896 5.42563 28.9096 6.03363C29.2402 6.63093 29.4056 7.30833 29.4056 8.06563C29.4056 8.81233 29.2402 9.48963 28.9096 10.0976C28.5896 10.6949 28.1469 11.1696 27.5816 11.5216C27.0269 11.8736 26.4029 12.0496 25.7096 12.0496ZM25.4216 10.3856C25.8482 10.3856 26.2216 10.2896 26.5416 10.0976C26.8722 9.89493 27.1282 9.61763 27.3096 9.26563C27.5016 8.91363 27.5976 8.50833 27.5976 8.04963C27.5976 7.59093 27.5016 7.18563 27.3096 6.83363C27.1282 6.48163 26.8722 6.20963 26.5416 6.01763C26.2216 5.81493 25.8482 5.71363 25.4216 5.71363C24.9949 5.71363 24.6162 5.81493 24.2856 6.01763C23.9549 6.20963 23.6989 6.48163 23.5176 6.83363C23.3362 7.18563 23.2456 7.59093 23.2456 8.04963C23.2456 8.50833 23.3362 8.91363 23.5176 9.26563C23.6989 9.61763 23.9549 9.89493 24.2856 10.0976C24.6162 10.2896 24.9949 10.3856 25.4216 10.3856ZM21.5976 15.0896V4.20963H23.3576V6.27363L23.0536 8.14563L23.3576 10.0016V15.0896H21.5976ZM31.0388 11.8896V0.369629H32.7988V11.8896H31.0388ZM38.4856 12.0496C37.7176 12.0496 37.0242 11.8789 36.4056 11.5376C35.7976 11.1856 35.3122 10.7056 34.9496 10.0976C34.5976 9.48963 34.4216 8.80693 34.4216 8.04963C34.4216 7.29233 34.5976 6.61493 34.9496 6.01763C35.3016 5.40963 35.7762 4.92963 36.3736 4.57763C36.9816 4.22563 37.6536 4.04963 38.3896 4.04963C39.1042 4.04963 39.7336 4.21493 40.2776 4.54563C40.8322 4.87633 41.2642 5.32963 41.5736 5.90563C41.8936 6.48163 42.0536 7.13763 42.0536 7.87363C42.0536 8.00163 42.0429 8.13493 42.0216 8.27363C42.0109 8.40163 41.9896 8.54563 41.9576 8.70563H35.6536V7.26563H41.0456L40.3896 7.84163C40.3682 7.37233 40.2776 6.97763 40.1176 6.65763C39.9576 6.33763 39.7282 6.09233 39.4296 5.92163C39.1416 5.75093 38.7842 5.66563 38.3576 5.66563C37.9096 5.66563 37.5202 5.76163 37.1896 5.95363C36.8589 6.14563 36.6029 6.41763 36.4216 6.76963C36.2402 7.11093 36.1496 7.52163 36.1496 8.00163C36.1496 8.48163 36.2456 8.90293 36.4376 9.26563C36.6296 9.62833 36.9016 9.91093 37.2536 10.1136C37.6056 10.3056 38.0109 10.4016 38.4696 10.4016C38.8642 10.4016 39.2269 10.3323 39.5576 10.1936C39.8989 10.0549 40.1869 9.85233 40.4216 9.58563L41.5416 10.7216C41.1682 11.1589 40.7149 11.4896 40.1816 11.7136C39.6482 11.9376 39.0829 12.0496 38.4856 12.0496ZM50.3476 12.0496C49.4622 12.0496 48.7102 11.8896 48.0916 11.5696C47.4729 11.2496 46.9182 10.7803 46.4276 10.1616L47.6756 8.91363C47.9849 9.36163 48.3529 9.71363 48.7796 9.96963C49.2062 10.2149 49.7502 10.3376 50.4116 10.3376C51.0302 10.3376 51.5209 10.2096 51.8836 9.95363C52.2569 9.69763 52.4436 9.34563 52.4436 8.89763C52.4436 8.52433 52.3476 8.22033 52.1556 7.98563C51.9636 7.75093 51.7076 7.55893 51.3876 7.40963C51.0782 7.24963 50.7316 7.11093 50.3476 6.99363C49.9742 6.86563 49.5956 6.72693 49.2116 6.57763C48.8382 6.41763 48.4916 6.22033 48.1716 5.98563C47.8622 5.75093 47.6116 5.44693 47.4196 5.07363C47.2276 4.70033 47.1316 4.22563 47.1316 3.64963C47.1316 2.98833 47.2916 2.42833 47.6116 1.96963C47.9422 1.50033 48.3849 1.14293 48.9396 0.897629C49.4942 0.652329 50.1129 0.529629 50.7956 0.529629C51.5316 0.529629 52.1876 0.67363 52.7636 0.96163C53.3502 1.24963 53.8249 1.61763 54.1876 2.06563L52.9396 3.31363C52.6196 2.95093 52.2836 2.68433 51.9316 2.51363C51.5902 2.33233 51.1956 2.24163 50.7476 2.24163C50.1929 2.24163 49.7556 2.35363 49.4356 2.57763C49.1262 2.80163 48.9716 3.11633 48.9716 3.52163C48.9716 3.86293 49.0676 4.14033 49.2596 4.35363C49.4516 4.55633 49.7022 4.73233 50.0116 4.88163C50.3316 5.02033 50.6782 5.15363 51.0516 5.28163C51.4356 5.40963 51.8142 5.55363 52.1876 5.71363C52.5716 5.87363 52.9182 6.08163 53.2276 6.33763C53.5476 6.58293 53.8036 6.90293 53.9956 7.29763C54.1876 7.69233 54.2836 8.18833 54.2836 8.78563C54.2836 9.78833 53.9262 10.5829 53.2116 11.1696C52.5076 11.7563 51.5529 12.0496 50.3476 12.0496ZM57.206 11.8896V1.00963H58.966V11.8896H57.206ZM55.366 5.80963V4.20963H60.806V5.80963H55.366ZM65.546 12.0496C64.8 12.0496 64.122 11.8736 63.514 11.5216C62.906 11.1589 62.421 10.6736 62.058 10.0656C61.706 9.45763 61.53 8.78033 61.53 8.03363C61.53 7.28693 61.706 6.61493 62.058 6.01763C62.421 5.42033 62.906 4.94563 63.514 4.59363C64.122 4.23093 64.8 4.04963 65.546 4.04963C66.304 4.04963 66.986 4.22563 67.594 4.57763C68.202 4.92963 68.682 5.40963 69.034 6.01763C69.397 6.61493 69.578 7.28693 69.578 8.03363C69.578 8.78033 69.397 9.45763 69.034 10.0656C68.682 10.6736 68.202 11.1589 67.594 11.5216C66.986 11.8736 66.304 12.0496 65.546 12.0496ZM65.546 10.3536C65.984 10.3536 66.368 10.2576 66.698 10.0656C67.04 9.86293 67.301 9.58563 67.482 9.23363C67.674 8.88163 67.77 8.48163 67.77 8.03363C67.77 7.58563 67.674 7.19093 67.482 6.84963C67.29 6.50833 67.029 6.24163 66.698 6.04963C66.368 5.84693 65.984 5.74563 65.546 5.74563C65.12 5.74563 64.736 5.84693 64.394 6.04963C64.064 6.24163 63.802 6.50833 63.61 6.84963C63.429 7.19093 63.338 7.58563 63.338 8.03363C63.338 8.48163 63.429 8.88163 63.61 9.23363C63.802 9.58563 64.064 9.86293 64.394 10.0656C64.736 10.2576 65.12 10.3536 65.546 10.3536ZM71.202 11.8896V4.20963H72.962V11.8896H71.202ZM72.962 7.61763L72.354 7.31363C72.354 6.34293 72.567 5.55893 72.994 4.96163C73.431 4.35363 74.087 4.04963 74.962 4.04963C75.346 4.04963 75.693 4.11893 76.002 4.25763C76.311 4.39633 76.599 4.62033 76.866 4.92963L75.714 6.11363C75.575 5.96433 75.421 5.85763 75.25 5.79363C75.079 5.72963 74.882 5.69763 74.658 5.69763C74.167 5.69763 73.762 5.85233 73.442 6.16163C73.122 6.47093 72.962 6.95633 72.962 7.61763ZM81.211 12.0496C80.443 12.0496 79.75 11.8789 79.131 11.5376C78.523 11.1856 78.038 10.7056 77.675 10.0976C77.323 9.48963 77.147 8.80693 77.147 8.04963C77.147 7.29233 77.323 6.61493 77.675 6.01763C78.027 5.40963 78.502 4.92963 79.099 4.57763C79.707 4.22563 80.379 4.04963 81.115 4.04963C81.83 4.04963 82.459 4.21493 83.003 4.54563C83.558 4.87633 83.99 5.32963 84.299 5.90563C84.619 6.48163 84.779 7.13763 84.779 7.87363C84.779 8.00163 84.769 8.13493 84.747 8.27363C84.737 8.40163 84.715 8.54563 84.683 8.70563H78.379V7.26563H83.771L83.115 7.84163C83.094 7.37233 83.003 6.97763 82.843 6.65763C82.683 6.33763 82.454 6.09233 82.155 5.92163C81.867 5.75093 81.51 5.66563 81.083 5.66563C80.635 5.66563 80.246 5.76163 79.915 5.95363C79.585 6.14563 79.329 6.41763 79.147 6.76963C78.966 7.11093 78.875 7.52163 78.875 8.00163C78.875 8.48163 78.971 8.90293 79.163 9.26563C79.355 9.62833 79.627 9.91093 79.979 10.1136C80.331 10.3056 80.737 10.4016 81.195 10.4016C81.59 10.4016 81.953 10.3323 82.283 10.1936C82.625 10.0549 82.913 9.85233 83.147 9.58563L84.267 10.7216C83.894 11.1589 83.441 11.4896 82.907 11.7136C82.374 11.9376 81.809 12.0496 81.211 12.0496Z" fill="white"/>
</svg>
