<svg width="16" height="15" viewBox="0 0 16 15" fill="none" xmlns="http://www.w3.org/2000/svg">
<path d="M16 2.21847C15.405 2.50485 14.771 2.69468 14.11 2.78685C14.79 2.34136 15.309 1.64131 15.553 0.797516C14.919 1.21228 14.219 1.50525 13.473 1.66874C12.871 0.965396 12.013 0.529785 11.077 0.529785C9.261 0.529785 7.799 2.14715 7.799 4.12989C7.799 4.41518 7.821 4.68949 7.875 4.95063C5.148 4.8047 2.735 3.37058 1.114 1.18595C0.831 1.7247 0.665 2.34136 0.665 3.0052C0.665 4.25169 1.25 5.35662 2.122 5.99632C1.595 5.98534 1.078 5.81747 0.64 5.55303C0.64 5.564 0.64 5.57827 0.64 5.59253C0.64 7.34156 1.777 8.79433 3.268 9.12899C3.001 9.20909 2.71 9.24749 2.408 9.24749C2.198 9.24749 1.986 9.23432 1.787 9.18604C2.212 10.6114 3.418 11.6593 4.852 11.6933C3.736 12.6512 2.319 13.2284 0.785 13.2284C0.516 13.2284 0.258 13.2152 0 13.179C1.453 14.2071 3.175 14.7941 5.032 14.7941C11.068 14.7941 14.368 9.30785 14.368 4.55233C14.368 4.39323 14.363 4.23962 14.356 4.0871C15.007 3.58016 15.554 2.94705 16 2.21847Z" fill="white"/>
</svg>
