<svg width="21" height="16" viewBox="0 0 21 16" fill="none" xmlns="http://www.w3.org/2000/svg">
<path d="M0.0416584 7.97333C0.0972137 8.03111 0.12499 8.08889 0.12499 8.14667L0.291658 8.32L6.54166 14.82C6.70832 15.0511 6.93055 15.1667 7.20832 15.1667C7.4861 15.1667 7.7361 15.0511 7.95832 14.82C8.18055 14.5889 8.29166 14.3289 8.29166 14.04C8.29166 13.7511 8.18055 13.4911 7.95832 13.26L3.45832 8.66667H19.7083C20.0417 8.66667 20.3055 8.56556 20.5 8.36333C20.6944 8.16111 20.7917 7.88667 20.7917 7.54C20.7917 7.19333 20.6944 6.93333 20.5 6.76C20.3055 6.58667 20.0417 6.5 19.7083 6.5H3.45832L7.95832 1.82C8.18055 1.58889 8.29166 1.32889 8.29166 1.04C8.29166 0.751111 8.19444 0.505556 7.99999 0.303333C7.80555 0.101111 7.55555 0 7.24999 0C6.94444 0 6.70832 0.0866667 6.54166 0.26L0.291658 6.76C0.12499 6.93333 0.0416584 7.04889 0.0416584 7.10667C-0.0138969 7.39556 -0.0138969 7.68444 0.0416584 7.97333Z" fill="#06042E"/>
</svg>
