<svg width="97" height="9" viewBox="0 0 97 9" fill="none" xmlns="http://www.w3.org/2000/svg">
<path d="M0.923199 8.88978V7.85778H3.2392C3.8552 7.85778 4.3952 7.72578 4.8592 7.46178C5.3232 7.18978 5.6832 6.81778 5.9392 6.34578C6.2032 5.87378 6.3352 5.32978 6.3352 4.71378C6.3352 4.10578 6.2032 3.56578 5.9392 3.09378C5.6752 2.62178 5.3112 2.25378 4.8472 1.98978C4.3832 1.72578 3.8472 1.59378 3.2392 1.59378H0.9352V0.561777H3.2632C3.8712 0.561777 4.4312 0.665777 4.9432 0.873777C5.4632 1.08178 5.9112 1.37378 6.2872 1.74978C6.6712 2.12578 6.9672 2.56578 7.1752 3.06978C7.3912 3.57378 7.4992 4.12578 7.4992 4.72578C7.4992 5.31778 7.3912 5.86978 7.1752 6.38178C6.9672 6.88578 6.6752 7.32578 6.2992 7.70178C5.9232 8.07778 5.4752 8.36978 4.9552 8.57778C4.4432 8.78578 3.8872 8.88978 3.2872 8.88978H0.923199ZM0.179199 8.88978V0.561777H1.3072V8.88978H0.179199ZM11.594 9.00978C11.034 9.00978 10.53 8.87778 10.082 8.61378C9.634 8.34978 9.278 7.99378 9.014 7.54578C8.75 7.08978 8.618 6.58178 8.618 6.02178C8.618 5.46978 8.75 4.97378 9.014 4.53378C9.278 4.08578 9.634 3.72978 10.082 3.46578C10.53 3.20178 11.034 3.06978 11.594 3.06978C12.146 3.06978 12.646 3.20178 13.094 3.46578C13.55 3.72178 13.91 4.07378 14.174 4.52178C14.438 4.96978 14.57 5.46978 14.57 6.02178C14.57 6.58178 14.438 7.08978 14.174 7.54578C13.91 7.99378 13.55 8.34978 13.094 8.61378C12.646 8.87778 12.146 9.00978 11.594 9.00978ZM11.594 7.96578C11.954 7.96578 12.274 7.88178 12.554 7.71378C12.834 7.54578 13.054 7.31778 13.214 7.02978C13.374 6.73378 13.454 6.39778 13.454 6.02178C13.454 5.65378 13.37 5.32578 13.202 5.03778C13.042 4.74978 12.822 4.52578 12.542 4.36578C12.27 4.19778 11.954 4.11378 11.594 4.11378C11.234 4.11378 10.914 4.19778 10.634 4.36578C10.354 4.52578 10.134 4.74978 9.974 5.03778C9.814 5.32578 9.734 5.65378 9.734 6.02178C9.734 6.39778 9.814 6.73378 9.974 7.02978C10.134 7.31778 10.354 7.54578 10.634 7.71378C10.914 7.88178 11.234 7.96578 11.594 7.96578ZM17.3748 8.88978L15.1188 3.18978H16.2468L17.8788 7.62978H17.5188L19.1388 3.18978H19.7628L21.3828 7.62978H21.0228L22.6548 3.18978H23.7828L21.5388 8.88978H20.9028L19.2588 4.58178H19.6548L17.9988 8.88978H17.3748ZM28.8948 8.88978V5.56578C28.8948 5.13378 28.7588 4.77778 28.4868 4.49778C28.2148 4.21778 27.8628 4.07778 27.4308 4.07778C27.1428 4.07778 26.8868 4.14178 26.6628 4.26978C26.4388 4.39778 26.2628 4.57378 26.1348 4.79778C26.0068 5.02178 25.9428 5.27778 25.9428 5.56578L25.4988 5.31378C25.4988 4.88178 25.5948 4.49778 25.7868 4.16178C25.9788 3.82578 26.2468 3.56178 26.5908 3.36978C26.9348 3.16978 27.3228 3.06978 27.7548 3.06978C28.1868 3.06978 28.5668 3.17778 28.8948 3.39378C29.2308 3.60978 29.4948 3.89378 29.6868 4.24578C29.8788 4.58978 29.9748 4.95778 29.9748 5.34978V8.88978H28.8948ZM24.8628 8.88978V3.18978H25.9428V8.88978H24.8628ZM31.557 8.88978V0.321777H32.637V8.88978H31.557ZM36.9412 9.00978C36.3812 9.00978 35.8772 8.87778 35.4292 8.61378C34.9812 8.34978 34.6252 7.99378 34.3612 7.54578C34.0972 7.08978 33.9652 6.58178 33.9652 6.02178C33.9652 5.46978 34.0972 4.97378 34.3612 4.53378C34.6252 4.08578 34.9812 3.72978 35.4292 3.46578C35.8772 3.20178 36.3812 3.06978 36.9412 3.06978C37.4932 3.06978 37.9932 3.20178 38.4412 3.46578C38.8972 3.72178 39.2572 4.07378 39.5212 4.52178C39.7852 4.96978 39.9172 5.46978 39.9172 6.02178C39.9172 6.58178 39.7852 7.08978 39.5212 7.54578C39.2572 7.99378 38.8972 8.34978 38.4412 8.61378C37.9932 8.87778 37.4932 9.00978 36.9412 9.00978ZM36.9412 7.96578C37.3012 7.96578 37.6212 7.88178 37.9012 7.71378C38.1812 7.54578 38.4012 7.31778 38.5612 7.02978C38.7212 6.73378 38.8012 6.39778 38.8012 6.02178C38.8012 5.65378 38.7172 5.32578 38.5492 5.03778C38.3892 4.74978 38.1692 4.52578 37.8892 4.36578C37.6172 4.19778 37.3012 4.11378 36.9412 4.11378C36.5812 4.11378 36.2612 4.19778 35.9812 4.36578C35.7012 4.52578 35.4812 4.74978 35.3212 5.03778C35.1612 5.32578 35.0812 5.65378 35.0812 6.02178C35.0812 6.39778 35.1612 6.73378 35.3212 7.02978C35.4812 7.31778 35.7012 7.54578 35.9812 7.71378C36.2612 7.88178 36.5812 7.96578 36.9412 7.96578ZM43.678 9.00978C43.158 9.00978 42.686 8.88178 42.262 8.62578C41.838 8.36178 41.502 8.00578 41.254 7.55778C41.014 7.10978 40.894 6.60578 40.894 6.04578C40.894 5.48578 41.014 4.98178 41.254 4.53378C41.502 4.08578 41.834 3.72978 42.25 3.46578C42.674 3.20178 43.15 3.06978 43.678 3.06978C44.11 3.06978 44.494 3.16178 44.83 3.34578C45.174 3.52178 45.45 3.76978 45.658 4.08978C45.866 4.40178 45.982 4.76578 46.006 5.18178V6.89778C45.982 7.30578 45.866 7.66978 45.658 7.98978C45.458 8.30978 45.186 8.56178 44.842 8.74578C44.506 8.92178 44.118 9.00978 43.678 9.00978ZM43.858 7.98978C44.394 7.98978 44.826 7.80978 45.154 7.44978C45.482 7.08178 45.646 6.61378 45.646 6.04578C45.646 5.65378 45.57 5.31378 45.418 5.02578C45.274 4.72978 45.066 4.50178 44.794 4.34178C44.522 4.17378 44.206 4.08978 43.846 4.08978C43.486 4.08978 43.166 4.17378 42.886 4.34178C42.614 4.50978 42.398 4.74178 42.238 5.03778C42.086 5.32578 42.01 5.65778 42.01 6.03378C42.01 6.41778 42.086 6.75778 42.238 7.05378C42.398 7.34178 42.618 7.56978 42.898 7.73778C43.178 7.90578 43.498 7.98978 43.858 7.98978ZM45.574 8.88978V7.35378L45.778 5.96178L45.574 4.58178V3.18978H46.666V8.88978H45.574ZM50.7704 9.00978C50.2424 9.00978 49.7704 8.88178 49.3544 8.62578C48.9384 8.36178 48.6064 8.00578 48.3584 7.55778C48.1184 7.10978 47.9984 6.60578 47.9984 6.04578C47.9984 5.48578 48.1184 4.98178 48.3584 4.53378C48.6064 4.08578 48.9384 3.72978 49.3544 3.46578C49.7704 3.20178 50.2424 3.06978 50.7704 3.06978C51.1944 3.06978 51.5784 3.16178 51.9224 3.34578C52.2664 3.52178 52.5424 3.76978 52.7504 4.08978C52.9664 4.40178 53.086 4.76578 53.11 5.18178V6.89778C53.086 7.30578 52.9704 7.66978 52.7624 7.98978C52.5544 8.30978 52.2784 8.56178 51.9344 8.74578C51.5904 8.92178 51.2024 9.00978 50.7704 9.00978ZM50.9504 7.98978C51.3104 7.98978 51.6224 7.90578 51.8864 7.73778C52.1584 7.56978 52.3704 7.34178 52.5224 7.05378C52.6744 6.75778 52.7504 6.42178 52.7504 6.04578C52.7504 5.65378 52.6704 5.31378 52.5104 5.02578C52.3584 4.73778 52.1464 4.50978 51.8744 4.34178C51.6104 4.17378 51.2984 4.08978 50.9384 4.08978C50.5784 4.08978 50.2624 4.17378 49.9904 4.34178C49.7184 4.50978 49.5024 4.74178 49.3424 5.03778C49.1904 5.32578 49.1144 5.65778 49.1144 6.03378C49.1144 6.41778 49.1904 6.75778 49.3424 7.05378C49.5024 7.34178 49.7184 7.56978 49.9904 7.73778C50.2704 7.90578 50.5904 7.98978 50.9504 7.98978ZM53.77 8.88978H52.6784V7.35378L52.8824 5.96178L52.6784 4.58178V0.321777H53.77V8.88978ZM62.063 9.00978C61.471 9.00978 60.919 8.90178 60.407 8.68578C59.895 8.46178 59.447 8.15378 59.063 7.76178C58.679 7.36178 58.379 6.90178 58.163 6.38178C57.955 5.86178 57.851 5.30578 57.851 4.71378C57.851 4.11378 57.955 3.55778 58.163 3.04578C58.379 2.52578 58.675 2.06978 59.051 1.67778C59.435 1.28578 59.879 0.981778 60.383 0.765778C60.895 0.549778 61.447 0.441777 62.039 0.441777C62.631 0.441777 63.179 0.549778 63.683 0.765778C64.195 0.981778 64.643 1.28578 65.027 1.67778C65.411 2.06978 65.711 2.52578 65.927 3.04578C66.143 3.56578 66.251 4.12578 66.251 4.72578C66.251 5.31778 66.143 5.87378 65.927 6.39378C65.711 6.91378 65.411 7.36978 65.027 7.76178C64.651 8.15378 64.207 8.46178 63.695 8.68578C63.191 8.90178 62.647 9.00978 62.063 9.00978ZM62.039 7.92978C62.639 7.92978 63.163 7.79378 63.611 7.52178C64.067 7.24178 64.427 6.86178 64.691 6.38178C64.955 5.89378 65.087 5.33778 65.087 4.71378C65.087 4.24978 65.011 3.82578 64.859 3.44178C64.707 3.04978 64.495 2.70978 64.223 2.42178C63.951 2.13378 63.631 1.91378 63.263 1.76178C62.895 1.60178 62.487 1.52178 62.039 1.52178C61.447 1.52178 60.923 1.65778 60.467 1.92978C60.019 2.20178 59.663 2.57778 59.399 3.05778C59.143 3.53778 59.015 4.08978 59.015 4.71378C59.015 5.17778 59.087 5.60978 59.231 6.00978C59.383 6.40178 59.591 6.74178 59.855 7.02978C60.127 7.30978 60.447 7.52978 60.815 7.68978C61.191 7.84978 61.599 7.92978 62.039 7.92978ZM71.758 8.88978V5.56578C71.758 5.13378 71.622 4.77778 71.35 4.49778C71.078 4.21778 70.726 4.07778 70.294 4.07778C70.006 4.07778 69.75 4.14178 69.526 4.26978C69.302 4.39778 69.126 4.57378 68.998 4.79778C68.87 5.02178 68.806 5.27778 68.806 5.56578L68.362 5.31378C68.362 4.88178 68.458 4.49778 68.65 4.16178C68.842 3.82578 69.11 3.56178 69.454 3.36978C69.798 3.16978 70.186 3.06978 70.618 3.06978C71.05 3.06978 71.43 3.17778 71.758 3.39378C72.094 3.60978 72.358 3.89378 72.55 4.24578C72.742 4.58978 72.838 4.95778 72.838 5.34978V8.88978H71.758ZM67.726 8.88978V3.18978H68.806V8.88978H67.726ZM79.249 8.88978V0.801777H80.377V8.88978H79.249ZM76.417 1.59378V0.561777H83.197V1.59378H76.417ZM88.501 8.88978V5.56578C88.501 5.13378 88.365 4.77778 88.093 4.49778C87.821 4.21778 87.469 4.07778 87.037 4.07778C86.749 4.07778 86.493 4.14178 86.269 4.26978C86.045 4.39778 85.869 4.57378 85.741 4.79778C85.613 5.02178 85.549 5.27778 85.549 5.56578L85.105 5.31378C85.105 4.88178 85.201 4.49778 85.393 4.16178C85.585 3.82578 85.853 3.56178 86.197 3.36978C86.541 3.16978 86.929 3.06978 87.361 3.06978C87.793 3.06978 88.173 3.16578 88.501 3.35778C88.837 3.54978 89.101 3.81778 89.293 4.16178C89.485 4.50578 89.581 4.90178 89.581 5.34978V8.88978H88.501ZM84.469 8.88978V0.321777H85.549V8.88978H84.469ZM93.803 9.00978C93.235 9.00978 92.723 8.88178 92.267 8.62578C91.811 8.36178 91.451 8.00578 91.187 7.55778C90.923 7.10978 90.791 6.60178 90.791 6.03378C90.791 5.47378 90.919 4.96978 91.175 4.52178C91.439 4.07378 91.791 3.72178 92.231 3.46578C92.679 3.20178 93.179 3.06978 93.731 3.06978C94.259 3.06978 94.723 3.18978 95.123 3.42978C95.531 3.66978 95.847 4.00178 96.071 4.42578C96.303 4.84978 96.419 5.32978 96.419 5.86578C96.419 5.94578 96.415 6.03378 96.407 6.12978C96.399 6.21778 96.383 6.32178 96.359 6.44178H91.547V5.54178H95.783L95.387 5.88978C95.387 5.50578 95.319 5.18178 95.183 4.91778C95.047 4.64578 94.855 4.43778 94.607 4.29378C94.359 4.14178 94.059 4.06578 93.707 4.06578C93.339 4.06578 93.015 4.14578 92.735 4.30578C92.455 4.46578 92.239 4.68978 92.087 4.97778C91.935 5.26578 91.859 5.60578 91.859 5.99778C91.859 6.39778 91.939 6.74978 92.099 7.05378C92.259 7.34978 92.487 7.58178 92.783 7.74978C93.079 7.90978 93.419 7.98978 93.803 7.98978C94.123 7.98978 94.415 7.93378 94.679 7.82178C94.951 7.70978 95.183 7.54178 95.375 7.31778L96.071 8.02578C95.799 8.34578 95.463 8.58978 95.063 8.75778C94.671 8.92578 94.251 9.00978 93.803 9.00978Z" fill="white"/>
</svg>
