<svg width="21" height="17" viewBox="0 0 21 17" fill="none" xmlns="http://www.w3.org/2000/svg">
<path d="M20.1075 2.11582C19.5379 0.960708 18.9197 0.748239 17.661 0.667441C16.4036 0.570184 13.2418 0.529785 10.5026 0.529785C7.75819 0.529785 4.59506 0.570184 3.339 0.665945C2.08294 0.748239 1.46344 0.959211 0.888563 2.11582C0.301875 3.26944 0 5.25647 0 8.75473C0 8.75772 0 8.75922 0 8.75922C0 8.76221 0 8.76371 0 8.76371V8.7667C0 12.25 0.301875 14.252 0.888563 15.3936C1.46344 16.5488 2.08162 16.7582 3.33769 16.8555C4.59506 16.9393 7.75819 16.9887 10.5026 16.9887C13.2418 16.9887 16.4036 16.9393 17.6623 16.857C18.921 16.7597 19.5392 16.5502 20.1088 15.3951C20.7008 14.2535 21 12.2515 21 8.76819C21 8.76819 21 8.76371 21 8.7607V8.75622C21 5.25646 20.7008 3.26944 20.1075 2.11582ZM7.875 13.248V4.27044L14.4375 8.75922L7.875 13.248Z" fill="white"/>
</svg>
